<?xml version="1.0" encoding="utf-8"?>
<!-- Generator: Adobe Illustrator 23.0.1, SVG Export Plug-In . SVG Version: 6.00 Build 0)  -->
<svg version="1.1" id="Layer_1" xmlns="http://www.w3.org/2000/svg" xmlns:xlink="http://www.w3.org/1999/xlink" x="0px" y="0px"
	 viewBox="0 0 1366 768" style="enable-background:new 0 0 1366 768;" xml:space="preserve">
<style type="text/css">
	.st0{fill:#F1C376;}
	.st1{fill:#FFF5EE;stroke:#E3D4C5;stroke-width:2;stroke-miterlimit:10;}
	.st2{fill:#E3D4C5;}
	.st3{fill:#CDB1AA;stroke:#E3D4C5;stroke-width:2;stroke-miterlimit:10;}
	.st4{fill:#FFFFFF;}
	.st5{fill:#B9B3B8;}
	.st6{fill:#FFFFFF;stroke:#000000;stroke-miterlimit:10;}
	.st7{fill:#F3705A;stroke:#E84D34;stroke-miterlimit:10;}
	.st8{fill:#94C0E9;stroke:#E4E7EF;stroke-miterlimit:10;}
	.st9{fill:none;stroke:#000000;stroke-miterlimit:10;}
	.st10{fill:#E4E7EF;}
	.st11{fill:#F3705A;}
	.st12{fill:#3973B0;}
	.st13{fill:#94C0E9;}
	.st14{fill:#F7D3BB;}
	.st15{fill:#583318;}
	.st16{fill:#2F6858;}
</style>
<g>
	<path class="st0" d="M1104.46,361.31c34.84,9.04,90.24,17.9,143.22,63.09c55.28,47.14,111.84,137.15,92.4,201.88
		c-38.47,128.06-382.65,184.37-662.41,96.35C597,697.24,250.89,589.97,250.89,361.31C250.89,161.76,441.97,0,677.68,0
		C851.78,0,866.44,299.52,1104.46,361.31z"/>
	<path class="st0" d="M1288.11,827"/>
	<g>
		<path class="st1" d="M1025,663.5c-41.4,8.04-82.8,16.07-124.21,24.11c-1.59,0.31-3.07-0.9-3.07-2.51l3.43-581.64
			c0.01-1.6,1.49-2.79,3.08-2.47c40.26,8.03,80.52,16.06,120.78,24.09c1.2,0.24,2.06,1.28,2.06,2.49v533.44
			C1027.08,662.22,1026.21,663.27,1025,663.5z"/>
		<path class="st1" d="M931.86,529.65c-18.31-1.75-36.62-3.5-54.93-5.25c-1.31-0.13-2.31-1.22-2.32-2.53
			c-0.38-136.97-0.76-273.95-1.14-410.92c0-1.17,0.8-2.19,1.94-2.48c18.31-4.55,36.63-9.09,54.94-13.64
			c1.62-0.4,3.18,0.81,3.18,2.46c0.38,143.27,0.76,286.54,1.14,429.81C934.67,528.62,933.37,529.8,931.86,529.65z"/>
		<path class="st2" d="M932.36,529.92c-0.77,0-1.54,0-2.31,0c-0.18,0.06-0.65,0.19-1.16,0c-0.66-0.24-1.11-0.92-1.16-1.72V96.92
			c0-0.95,0.78-1.72,1.73-1.72h2.31c0.96,0,1.73,0.77,1.73,1.72c0.39,143.57,0.77,287.14,1.16,430.71
			c-0.41,0.57-0.95,1.19-1.66,1.79C932.79,529.6,932.58,529.77,932.36,529.92z"/>
		<path class="st1" d="M873.46,108.97c-65.84,4.97-131.67,9.94-197.51,14.91c34.65,5.35,69.3,10.71,103.95,16.06
			c30.8-0.76,61.6-1.53,92.4-2.29C872.69,128.08,873.07,118.53,873.46,108.97z"/>
		<path class="st1" d="M772.91,509.24c-32.32,4.98-64.64,9.97-96.96,14.95c0-133.44,0-266.87,0-400.31
			c34.27,5.35,68.53,10.71,102.8,16.06C776.8,263.04,774.85,386.14,772.91,509.24z"/>
		<path class="st1" d="M872.3,513.86c-33.5-1.54-66.99-3.08-100.49-4.62c1.54-122.71,3.08-245.43,4.62-368.14
			c31.96-1.15,63.91-2.31,95.87-3.46C872.3,263.05,872.3,388.46,872.3,513.86z"/>
		<path class="st1" d="M674.79,526.48c-41.58,0-83.16,0-124.74,0c-0.39-134.97-0.77-269.93-1.16-404.9
			c41.97,0.78,83.93,1.57,125.9,2.35V526.48z"/>
		<path class="st2" d="M553.51,527.54c-0.77,0-1.54,0-2.31,0c-0.18,0.06-0.65,0.18-1.16,0c-0.66-0.23-1.11-0.86-1.16-1.61V122.05
			c0-0.89,0.78-1.61,1.73-1.61h2.31c0.96,0,1.73,0.72,1.73,1.61c0.39,134.45,0.77,268.89,1.16,403.34
			c-0.41,0.53-0.95,1.12-1.66,1.68C553.94,527.24,553.72,527.39,553.51,527.54z"/>
		<path class="st1" d="M897.72,687.06c-74.31-8.03-148.62-16.06-222.93-24.09c0.38-45.5,0.76-91,1.14-136.5
			c74.31,0.76,148.62,1.53,222.93,2.29C898.49,581.54,898.1,634.3,897.72,687.06z"/>
		<path class="st3" d="M880.39,595.3c-65.07-3.44-130.13-6.88-195.2-10.32c0-18.35,0-36.7,0-55.06
			c65.07,3.06,130.13,6.12,195.2,9.18C880.39,557.83,880.39,576.57,880.39,595.3z"/>
		<path class="st3" d="M879.23,666.42c-65.07-3.44-130.13-6.88-195.2-10.32c0-18.35,0-36.7,0-55.06
			c65.07,3.06,130.13,6.12,195.2,9.18C879.23,628.95,879.23,647.68,879.23,666.42z"/>
		<path d="M796.27,637.74h-42.72c-1.36,0-2.42-1.16-2.3-2.5c0.25-2.68,0.49-5.36,0.74-8.03c0.11-1.18,1.1-2.08,2.3-2.08h42.72
			c1.36,0,2.42,1.16,2.3,2.5c-0.25,2.68-0.49,5.36-0.74,8.03C798.46,636.84,797.47,637.74,796.27,637.74z"/>
		<path class="st4" d="M765.22,633.15h-8.01c-0.77,0-1.32-0.75-1.07-1.48c0.13-0.4,0.27-0.8,0.4-1.2c0.15-0.46,0.59-0.77,1.07-0.77
			h8.01c0.77,0,1.32,0.75,1.07,1.48c-0.13,0.4-0.27,0.8-0.4,1.2C766.14,632.84,765.71,633.15,765.22,633.15z"/>
		<path d="M797.43,568.92h-42.72c-1.36,0-2.42-1.16-2.3-2.5c0.25-2.68,0.49-5.36,0.74-8.03c0.11-1.18,1.1-2.08,2.3-2.08h42.72
			c1.36,0,2.42,1.16,2.3,2.5c-0.25,2.68-0.49,5.36-0.74,8.03C799.62,568.02,798.62,568.92,797.43,568.92z"/>
		<path class="st4" d="M767.53,564.33h-8.01c-0.77,0-1.32-0.75-1.07-1.48c0.13-0.4,0.27-0.8,0.4-1.2c0.15-0.46,0.59-0.77,1.07-0.77
			h8.01c0.77,0,1.32,0.75,1.07,1.48c-0.13,0.4-0.27,0.8-0.4,1.2C768.45,564.02,768.02,564.33,767.53,564.33z"/>
		<path class="st1" d="M872.3,513.86c-32.73-1.53-65.45-3.06-98.18-4.59c-32.73,4.97-65.45,9.94-98.18,14.91
			c73.15,1.15,146.3,2.29,219.46,3.44C887.7,523.04,880,518.45,872.3,513.86z"/>
		<path d="M751.02,170.91c-0.39,0-0.77,0-1.16,0c-0.38,2.53-1.24,6.31-3.47,10.32c-2.03,3.68-3.78,4.97-5.78,8.03
			c-1.81,2.77-3.92,7.14-4.62,13.76c0.39,0,0.77,0,1.16,0c0.26-2.88,1.01-7.11,3.47-11.47c1.95-3.47,3.63-4.62,5.78-8.03
			C748.06,180.89,750.06,176.82,751.02,170.91z"/>
		<path class="st5" d="M869.99,154.85c-47.33,3.41-94.65,6.82-141.97,10.23c-0.68,0.05-1.17,0.65-1.07,1.31
			c0.28,1.92,0.55,3.83,0.83,5.75c0.09,0.6,0.63,1.03,1.24,0.98c47.38-3.41,94.75-6.83,142.13-10.24c0-0.38,0-0.76,0-1.15
			c0-3.82,0-5.74,0-5.74c0-1.11,0-1.15,0-1.15l0,0C871.15,154.85,871.11,154.85,869.99,154.85z"/>
		<path d="M739.47,173.2h-1.16c-0.41-0.77-1.16-2.4-1.16-4.59c0-0.87,0.12-2.65,1.16-4.59c0.38,0,0.77,0,1.16,0
			c-0.41,0.77-1.16,2.4-1.16,4.59C738.32,169.48,738.43,171.27,739.47,173.2z"/>
		<path d="M726.77,235.14c-14.43-0.65-22.13-2.95-23.1-6.88c-1.33-5.36,9.84-13.77,33.5-25.23c-0.39,0-0.77,0-1.16,0
			c-5.43,2.44-35.64,16.26-33.5,25.23c0.4,1.67,2.75,6.64,24.63,7.81C727.02,235.76,726.89,235.45,726.77,235.14z"/>
		<path d="M853.82,164.02h-1.16c-0.41-0.77-1.16-2.4-1.16-4.59c0-0.87,0.12-2.65,1.16-4.59c0.39,0,0.77,0,1.16,0
			c-0.41,0.77-1.16,2.4-1.16,4.59C852.67,160.3,852.78,162.09,853.82,164.02z"/>
		<path d="M864.22,165.17c-0.39,0-0.77,0-1.16,0c-0.38,2.71-1.24,6.76-3.47,11.06c-2.03,3.94-3.78,5.33-5.78,8.6
			c-1.81,2.97-3.92,7.64-4.62,14.75c0.39,0,0.77,0,1.16,0c0.26-3.09,1.01-7.62,3.47-12.29c1.95-3.72,3.63-4.95,5.78-8.6
			C861.26,175.86,863.25,171.51,864.22,165.17z"/>
		<path class="st6" d="M908.68,194.42"/>
		<path d="M831.88,283.31"/>
		<path class="st7" d="M868.84,200.73c-2.47-0.8-5.43,2.03-7.51,4.01c-6.57,6.28-9.1,14.37-12.71,30.97
			c-1.91,8.78-3.14,15.46-3.47,17.21c-3.55,19.27-5.32,28.91-6.93,42.44c-0.69,5.82-2.39,20.05-2.31,29.82c0.02,3.08,0,8.13,0,12.62
			c0,5.21-0.22,5.81,0,9.18c0.3,4.55,0.45,6.83,1.16,8.03c3.81,6.45,19.62,4.08,19.64,4.59c0.01,0.35-7.75-1.04-12.13,2.87
			c-3.32,2.96-2.21,6.97-2.89,21.22c-0.32,6.78-0.85,11.79-1.73,20.07c-0.84,7.96-1,6.94-2.31,18.35c-0.4,3.51-1.04,9.6-2.31,21.79
			c-0.4,3.82-0.63,7.66-1.16,11.47c-1.05,7.59-1.94,9.85-1.16,13.76c0.98,4.86,3.71,8.12,4.62,9.18c6.62,7.72,16.63,7.96,19.64,8.03
			c4.78,0.11,8.49,0.13,11.55-2.29c3.46-2.75,3.93-6.97,4.04-28.1c0.05-8.94,0.01-17.16,0-20.65c0-0.33,0-7.1,0-20.65
			c0-41.38,0.38-58.41,0-90.61c-0.17-14.33-0.35-15.27-0.4-26.02c-0.06-13.64-0.12-27.29,0.4-45.1c0,0,0.3-10.23,0-29.82
			C872.67,209.49,872.27,201.84,868.84,200.73z"/>
		<path class="st8" d="M834.19,199.58c-2.03-1.72-6.93-1.99-9.43-1.76c-0.18,0.02-0.31,0.03-0.39,0.04
			c-2.32,0.24-4.78,0.49-6.93,2.29c-3.93,3.29-3.6,9-3.47,11.47c0.13,2.22,0.2,3.49,1.16,4.59c2.78,3.19,9.74,1.24,9.82,1.72
			c0.07,0.46-6.36,0.63-11.55,4.59c-2.53,1.93-3.81,4.03-5.2,6.31c-3.87,6.35-4.69,12.51-5.2,16.63c-0.43,3.51,0.04,2.36-0.58,14.34
			c-0.21,4.02-0.32,6.08-0.58,8.6c-0.74,7.16-1.44,7.41-1.73,12.04c-0.33,5.17,0.55,4.79,0.58,13.19c0.01,3.89,0.01,6.88-0.58,10.9
			c-0.15,0.99-0.68,3.54-1.73,8.6c-1.39,6.68-1.52,7.17-1.73,8.6c-0.6,4.12-0.59,7.24-0.58,9.75c0,0,0.11,8.09,0,24.09
			c-0.04,5.73,0.42,11.49,0,17.21c-0.58,8.04-0.38,10.76,0.4,12.49c0.16,0.36,0.4,0.77,0.76,1.28c4.28,5.96,15.57,4.48,15.59,5.16
			c0.02,0.66-10.65-0.64-13.28,4.01c-1.84,3.25-0.04,9.76-1.16,13.76c-1.13,4.06-2.47,3.76-3.47,8.03c-1.01,4.35,0,10.32,0,10.32
			c1.57,8.88,2.64,8.65,2.89,13.19c0.16,3.05-0.28,5.47-1.16,10.32c-1.29,7.14-2.3,7.86-2.89,13.19c-0.57,5.16-0.9,8.51,1.16,11.47
			c1.48,2.13,3.45,3.02,6.93,4.59c4.91,2.21,9.28,2.27,10.4,2.29c9.33,0.19,20.46-4.71,20.21-8.6c-0.28-4.36-14.53-1.69-19.64-10.32
			c-3.89-6.58,1.82-12.47,2.31-34.41c0.1-4.3-0.12-4.01,0-9.18c0.18-7.3,0.75-13.48,1.3-18.04c0.52-4.31,0.59-3.71,1.01-7.19
			c1.18-9.94,0.26-12.04,1.16-24.09c0.24-3.22,0.58-6.62,0.73-8.03c0.2-1.75,0.42-3.44,0.42-3.44c0.04-0.27,0.13-0.95,0.25-1.82
			c0.24-1.64,0.43-2.86,0.47-3.12c0.72-4.48,0.8-9.25,1.58-14.55c0,0,0.51-3.38,0.09-6.34c-0.02-0.14-0.04-0.31-0.09-0.54
			c-0.51-2.91-2.31-5.73-2.31-5.74c-2.14-3.37-2.7-2.6-4.62-5.74c0,0-2.32-3.78-2.31-6.88c0-0.01,0-0.36,0-0.84
			c0-0.03,0-0.04,0-0.04c-0.01-8.05,3.47-15.18,3.47-15.18c0,0,0,0,1.16-2.29c1.97-3.92,2.13-4.22,2.31-4.59
			c2.52-5.09,3.47-10.32,3.47-10.32c0.17-0.98-0.02-0.18,0.77-8.67c0.26-2.8,0.34-3.55,0.38-3.94c0.26-2.33,0.51-3.98,1.16-8.03
			c0,0,1.91-11.97,2.1-14.89c0,0,0.04-0.57,0.09-1.11c0,0,0-0.02,0-0.04c0.01-0.06,0.02-0.17,0.03-0.32
			c0.03-0.3,0.04-0.41,0.08-0.85c0.29-2.82,0.6-4.6,1.16-8.03c0.88-5.43,0.89-5.49,1.16-6.88c0.46-2.44,1.01-4.13,1.16-4.59
			C834.76,212.91,837.88,202.71,834.19,199.58z"/>
		<path class="st9" d="M920.24,264.39"/>
		<path class="st6" d="M858.44,200.73c-0.54-0.16-5.68-1.73-10.4,0c-2.63,0.96-6.84,3.37-11.55,13.76
			c-3.01,6.64-4.55,12.7-6.93,27.53c-1.52,9.46-2.74,18.51-3.47,24.09c-2.5,19.25-2.21,21.24-4.62,26.38
			c-2.94,6.27-5.57,8.12-6.93,14.91c-0.76,3.8-2.14,10.41,1.16,14.91c1.42,1.94,3.13,2.7,5.2,6.31c0.3,0.52,0.72,1.25,1.16,2.29
			c0.73,1.74,2.12,5.77,1.16,10.32l0,0c-2.08,8.4-1.7,17.23-2.89,25.81c-0.76,5.53-1.28,10.19-2.31,19.5
			c-0.71,6.42-1.25,12.01-2.31,22.94c-2.64,27.21-1.63,19.15-2.31,25.23c-0.87,7.71-1.62,12.86-1.16,20.65
			c0.76,12.86,3.8,14.54,4.62,14.91c1.08,0.49,4.76,0.52,12.13,0.57c1.16,0.01,1.04,0.02,1.16,0c5.26-0.98,5.03-19.35,6.93-48.17
			c0.79-12.04,2.99-41.55,4.62-49.32c0.3-1.43-1.31-5.98,1.16-9.18c1.53-1.98,3.59-2.39,3.47-3.44c-0.21-1.76-6.05-0.69-9.24-4.59
			c-1.86-2.27-2.29-5.57-2.31-5.74c-0.15-1.26-0.02-2.22-0.02-2.51c-0.04-9.14,0.39-31.38,5.8-72.05c0,0,5.79-43.51,13.86-58.5
			c1.22-2.26,2.18-4.66,3.47-6.88c2.43-4.2,4.29-6.32,3.47-8.03C861.14,202.06,860.68,201.4,858.44,200.73z"/>
		<path d="M838.81,165.17c-0.38,0-0.77,0-1.16,0c-0.38,2.71-1.24,6.76-3.47,11.06c-2.03,3.94-3.78,5.33-5.78,8.6
			c-1.81,2.97-3.92,7.64-4.62,14.75c0.39,0,0.77,0,1.16,0c0.26-3.09,1.01-7.62,3.47-12.29c1.95-3.72,3.63-4.95,5.78-8.6
			C835.85,175.86,837.84,171.51,838.81,165.17z"/>
		<path d="M826.1,166.32h-1.16c-0.41-0.77-1.16-2.4-1.16-4.59c0-0.87,0.12-2.65,1.16-4.59c0.39,0,0.77,0,1.16,0
			c-0.41,0.77-1.16,2.4-1.16,4.59C824.94,162.6,825.06,164.38,826.1,166.32z"/>
		<path d="M849.24,228.22c-5.53-0.35-11.06-0.69-16.59-1.04c-0.54-0.03-0.9-0.48-0.73-0.9l3.68-8.99c0.12-0.3,0.48-0.49,0.86-0.46
			c5.53,0.35,11.06,0.69,16.59,1.04c0.54,0.03,0.9,0.48,0.73,0.9l-3.68,8.99C849.98,228.05,849.62,228.24,849.24,228.22z"/>
		<path d="M843.96,255.79h-15.92c-0.41,0-0.74-0.36-0.69-0.77c0.33-2.98,0.67-5.96,1-8.94c0.04-0.35,0.34-0.61,0.69-0.61h15.92
			c0.41,0,0.74,0.36,0.69,0.77c-0.33,2.98-0.67,5.96-1,8.94C844.61,255.52,844.31,255.79,843.96,255.79z"/>
		<path d="M840.15,286.4c-0.02,0.22-0.14,0.42-0.33,0.53c-1.45,0.83-4.45,2.26-8.41,2.12c-3.3-0.12-5.82-1.27-7.23-2.07
			c-0.23-0.13-0.37-0.4-0.34-0.68c0.32-3.41,0.65-6.81,0.97-10.22c0.04-0.42,0.42-0.7,0.81-0.6c1.85,0.48,4.18,0.9,6.88,0.95
			c3.11,0.06,5.78-0.39,7.82-0.91c0.44-0.11,0.84,0.27,0.79,0.74C840.79,279.64,840.47,283.02,840.15,286.4z"/>
		<path d="M835.34,333.78c-2.33-0.24-8.25-1.17-13.86-5.74c-5.17-4.21-7.3-9.25-8.09-11.47c0.11-2.26,0.42-4.99,1.16-8.03
			c0.65-2.68,1.49-4.98,2.31-6.88c2.92,3.2,7.08,7.01,12.71,10.32c2.43,1.43,4.77,2.55,6.93,3.44
			C836.11,321.55,835.73,327.66,835.34,333.78z"/>
		<path d="M841.08,377.9c-0.06,0.35-0.4,0.61-0.8,0.59c-3.25-0.14-6.92-0.47-10.9-1.12c-3.58-0.58-6.82-1.33-9.67-2.12
			c-0.37-0.1-0.59-0.43-0.53-0.77c0.78-4.51,1.56-9.02,2.34-13.53c0.07-0.42,0.54-0.68,0.99-0.56c2.8,0.77,5.96,1.49,9.45,2.06
			c3.92,0.64,7.53,0.97,10.74,1.11c0.46,0.02,0.79,0.39,0.72,0.79C842.64,368.88,841.86,373.39,841.08,377.9z"/>
		<path d="M836.46,420.37c-0.06,0.33-0.4,0.58-0.8,0.56c-3.25-0.13-6.92-0.45-10.9-1.06c-3.58-0.55-6.82-1.26-9.67-2.01
			c-0.37-0.1-0.59-0.41-0.53-0.73c0.78-4.27,1.56-8.55,2.34-12.82c0.07-0.4,0.54-0.65,0.99-0.53c2.8,0.73,5.96,1.41,9.45,1.95
			c3.92,0.61,7.53,0.92,10.74,1.05c0.46,0.02,0.79,0.37,0.72,0.75C838.02,411.81,837.24,416.09,836.46,420.37z"/>
		<path d="M830.84,470.62c-0.21-0.03-0.56-0.25-1.28-0.34c-0.58-0.07-1.02-0.02-1.16,0c-0.91,0.11-2.53,0.07-5.78,0
			c-3.73-0.08-5.6-0.12-6.93-1.15c-1.2-0.92-1.33-2.01-2.31-6.88c-1.69-8.39-2.39-10.53-1.16-11.47c0.29-0.22,0.78-0.45,3.47,0
			c2.87,0.48,4.02,1.02,8.09,2.29c0,0,5.92,1.85,8.65,3.28c0.14,0.07,0.28,0.15,0.28,0.15s0.8,0.47,1.46,1.15
			C835.46,458.99,832.66,470.88,830.84,470.62z"/>
		<path d="M746.29,235.14c14.43-0.65,22.13-2.95,23.1-6.88c1.33-5.36-9.84-13.77-33.5-25.23c0.38,0,0.77,0,1.16,0
			c5.43,2.44,35.64,16.26,33.5,25.23c-0.4,1.67-2.75,6.64-24.63,7.81C746.05,235.76,746.17,235.45,746.29,235.14z"/>
		<path class="st8" d="M823.21,334.36"/>
		<path class="st8" d="M819.75,293.06"/>
		<g>
			<path class="st10" d="M812.32,246.04h-0.16c-0.27,0-0.5-0.23-0.5-0.5v-5.88c0-0.27,0.23-0.5,0.5-0.5h0.16
				c0.28,0,0.5,0.23,0.5,0.5v5.88C812.82,245.81,812.59,246.04,812.32,246.04z"/>
			<path class="st10" d="M808.77,242.67v-0.15c0-0.27,0.22-0.5,0.5-0.5l5.93,0c0.28,0,0.5,0.22,0.5,0.5v0.15
				c0,0.27-0.22,0.5-0.5,0.5l-5.93,0C809,243.17,808.77,242.94,808.77,242.67z"/>
			<path class="st10" d="M809.56,240.41l0.05-0.06c0.19-0.22,0.53-0.25,0.76-0.07l4.49,3.74c0.23,0.19,0.26,0.53,0.07,0.75
				l-0.05,0.06c-0.19,0.22-0.53,0.25-0.76,0.07l-4.49-3.74C809.4,240.98,809.37,240.64,809.56,240.41z"/>
			<path class="st10" d="M809.56,244.78l0.05,0.06c0.19,0.22,0.53,0.25,0.76,0.07l4.49-3.74c0.23-0.19,0.26-0.53,0.07-0.75
				l-0.05-0.06c-0.19-0.22-0.53-0.25-0.76-0.07l-4.49,3.74C809.4,244.21,809.37,244.55,809.56,244.78z"/>
		</g>
		<g>
			<path class="st10" d="M822.71,208.18h-0.16c-0.28,0-0.5-0.23-0.5-0.5v-5.88c0-0.28,0.22-0.5,0.5-0.5h0.16
				c0.28,0,0.5,0.22,0.5,0.5v5.88C823.21,207.96,822.99,208.18,822.71,208.18z"/>
			<path class="st10" d="M819.17,204.82v-0.15c0-0.27,0.22-0.5,0.5-0.5h5.93c0.28,0,0.5,0.23,0.5,0.5v0.15c0,0.28-0.22,0.5-0.5,0.5
				h-5.93C819.39,205.32,819.17,205.09,819.17,204.82z"/>
			<path class="st10" d="M819.95,202.56l0.05-0.06c0.19-0.22,0.53-0.25,0.76-0.07l4.49,3.74c0.23,0.19,0.26,0.53,0.07,0.75
				l-0.05,0.06c-0.19,0.22-0.53,0.25-0.76,0.07l-4.49-3.74C819.79,203.12,819.76,202.79,819.95,202.56z"/>
			<path class="st10" d="M819.95,206.92l0.05,0.06c0.19,0.22,0.53,0.25,0.76,0.07l4.49-3.74c0.23-0.19,0.26-0.53,0.07-0.75
				l-0.05-0.06c-0.19-0.22-0.53-0.25-0.76-0.07l-4.49,3.74C819.79,206.36,819.76,206.7,819.95,206.92z"/>
		</g>
		<g>
			<path class="st10" d="M826.18,229.98h-0.16c-0.27,0-0.5-0.22-0.5-0.5v-5.88c0-0.27,0.23-0.5,0.5-0.5h0.16
				c0.28,0,0.5,0.23,0.5,0.5v5.88C826.68,229.75,826.45,229.98,826.18,229.98z"/>
			<path class="st10" d="M822.63,226.61v-0.15c0-0.28,0.22-0.5,0.5-0.5h5.93c0.28,0,0.5,0.23,0.5,0.5v0.15c0,0.27-0.22,0.5-0.5,0.5
				h-5.93C822.86,227.11,822.63,226.88,822.63,226.61z"/>
			<path class="st10" d="M823.42,224.35l0.05-0.06c0.19-0.22,0.53-0.25,0.76-0.07l4.49,3.74c0.23,0.19,0.26,0.53,0.07,0.75
				l-0.05,0.06c-0.19,0.22-0.53,0.25-0.76,0.07l-4.49-3.74C823.26,224.92,823.23,224.58,823.42,224.35z"/>
			<path class="st10" d="M823.42,228.72l0.05,0.06c0.19,0.22,0.53,0.25,0.76,0.07l4.49-3.74c0.23-0.19,0.26-0.53,0.07-0.75
				l-0.05-0.06c-0.19-0.22-0.53-0.25-0.76-0.07l-4.49,3.74C823.26,228.15,823.23,228.49,823.42,228.72z"/>
		</g>
		<g>
			<path class="st10" d="M820.4,262.09h-0.16c-0.28,0-0.5-0.23-0.5-0.5v-5.88c0-0.28,0.22-0.5,0.5-0.5h0.16c0.27,0,0.5,0.22,0.5,0.5
				v5.88C820.9,261.87,820.68,262.09,820.4,262.09z"/>
			<path class="st10" d="M816.86,258.73v-0.15c0-0.27,0.22-0.5,0.5-0.5l5.93,0c0.28,0,0.5,0.22,0.5,0.5v0.15
				c0,0.27-0.22,0.5-0.5,0.5h-5.93C817.08,259.23,816.86,259,816.86,258.73z"/>
			<path class="st10" d="M817.64,256.47l0.05-0.06c0.19-0.22,0.53-0.25,0.76-0.07l4.49,3.74c0.23,0.19,0.26,0.53,0.07,0.75
				l-0.05,0.06c-0.19,0.22-0.53,0.25-0.76,0.07l-4.49-3.74C817.48,257.03,817.45,256.7,817.64,256.47z"/>
			<path class="st10" d="M817.64,260.83l0.05,0.06c0.19,0.22,0.53,0.25,0.76,0.07l4.49-3.74c0.23-0.19,0.26-0.53,0.07-0.75
				l-0.05-0.06c-0.19-0.22-0.53-0.25-0.76-0.07l-4.49,3.74C817.48,260.27,817.45,260.61,817.64,260.83z"/>
		</g>
		<g>
			<path class="st10" d="M808.85,277h-0.16c-0.28,0-0.5-0.23-0.5-0.5v-5.88c0-0.27,0.22-0.5,0.5-0.5h0.16c0.28,0,0.5,0.23,0.5,0.5
				v5.88C809.35,276.78,809.13,277,808.85,277z"/>
			<path class="st10" d="M805.31,273.64v-0.15c0-0.27,0.22-0.5,0.5-0.5h5.93c0.28,0,0.5,0.23,0.5,0.5v0.15c0,0.28-0.22,0.5-0.5,0.5
				h-5.93C805.53,274.14,805.31,273.91,805.31,273.64z"/>
			<path class="st10" d="M806.09,271.38l0.05-0.06c0.19-0.22,0.53-0.25,0.76-0.07l4.49,3.74c0.23,0.19,0.26,0.53,0.07,0.75
				l-0.05,0.06c-0.19,0.22-0.53,0.25-0.76,0.07l-4.49-3.74C805.93,271.95,805.9,271.61,806.09,271.38z"/>
			<path class="st10" d="M806.09,275.75l0.05,0.06c0.19,0.22,0.53,0.25,0.76,0.07l4.49-3.74c0.23-0.19,0.26-0.53,0.07-0.75
				l-0.05-0.06c-0.19-0.22-0.53-0.25-0.76-0.07l-4.49,3.74C805.93,275.18,805.9,275.52,806.09,275.75z"/>
		</g>
		<g>
			<path class="st10" d="M811.16,294.21h-0.16c-0.28,0-0.5-0.22-0.5-0.5v-5.88c0-0.27,0.22-0.5,0.5-0.5h0.16
				c0.28,0,0.5,0.23,0.5,0.5v5.88C811.66,293.99,811.44,294.21,811.16,294.21z"/>
			<path class="st10" d="M807.62,290.84v-0.15c0-0.27,0.22-0.5,0.5-0.5h5.93c0.28,0,0.5,0.23,0.5,0.5v0.15c0,0.27-0.22,0.5-0.5,0.5
				h-5.93C807.84,291.34,807.62,291.12,807.62,290.84z"/>
			<path class="st10" d="M808.4,288.59l0.05-0.06c0.19-0.22,0.53-0.25,0.76-0.07l4.49,3.74c0.23,0.19,0.26,0.53,0.07,0.75
				l-0.05,0.06c-0.19,0.22-0.53,0.25-0.76,0.07l-4.49-3.74C808.24,289.15,808.21,288.81,808.4,288.59z"/>
			<path class="st10" d="M808.4,292.95l0.05,0.06c0.19,0.22,0.53,0.25,0.76,0.07l4.49-3.74c0.23-0.19,0.26-0.53,0.07-0.75
				l-0.05-0.06c-0.19-0.22-0.53-0.25-0.76-0.07l-4.49,3.74C808.24,292.39,808.21,292.73,808.4,292.95z"/>
		</g>
		<g>
			<path class="st10" d="M805.39,319.44h-0.16c-0.28,0-0.5-0.23-0.5-0.5v-5.88c0-0.27,0.22-0.5,0.5-0.5h0.16
				c0.27,0,0.5,0.23,0.5,0.5v5.88C805.89,319.22,805.66,319.44,805.39,319.44z"/>
			<path class="st10" d="M801.84,316.08v-0.15c0-0.27,0.23-0.5,0.5-0.5h5.93c0.28,0,0.5,0.23,0.5,0.5v0.15c0,0.28-0.22,0.5-0.5,0.5
				h-5.93C802.07,316.58,801.84,316.35,801.84,316.08z"/>
			<path class="st10" d="M802.63,313.82l0.05-0.06c0.19-0.22,0.53-0.25,0.76-0.07l4.49,3.74c0.23,0.19,0.26,0.53,0.07,0.75
				l-0.05,0.06c-0.19,0.22-0.53,0.25-0.76,0.07l-4.49-3.74C802.47,314.39,802.44,314.05,802.63,313.82z"/>
			<path class="st10" d="M802.63,318.18l0.05,0.06c0.19,0.22,0.53,0.25,0.76,0.07l4.49-3.74c0.23-0.19,0.26-0.53,0.07-0.75
				l-0.05-0.06c-0.19-0.22-0.53-0.25-0.76-0.07l-4.49,3.74C802.47,317.62,802.44,317.96,802.63,318.18z"/>
		</g>
		<g>
			<path class="st10" d="M815.78,340.09h-0.16c-0.27,0-0.5-0.23-0.5-0.5v-5.88c0-0.27,0.23-0.5,0.5-0.5h0.16
				c0.27,0,0.5,0.23,0.5,0.5v5.88C816.28,339.87,816.06,340.09,815.78,340.09z"/>
			<path class="st10" d="M812.24,336.72v-0.15c0-0.28,0.23-0.5,0.5-0.5h5.93c0.27,0,0.5,0.23,0.5,0.5v0.15c0,0.27-0.23,0.5-0.5,0.5
				h-5.93C812.46,337.22,812.24,337,812.24,336.72z"/>
			<path class="st10" d="M813.02,334.47l0.05-0.06c0.19-0.22,0.53-0.25,0.76-0.07l4.49,3.74c0.23,0.19,0.26,0.53,0.07,0.75
				l-0.05,0.06c-0.19,0.22-0.53,0.25-0.76,0.07l-4.49-3.74C812.86,335.03,812.83,334.69,813.02,334.47z"/>
			<path class="st10" d="M813.02,338.83l0.05,0.06c0.19,0.22,0.53,0.25,0.76,0.07l4.49-3.74c0.23-0.19,0.26-0.53,0.07-0.75
				l-0.05-0.06c-0.19-0.22-0.53-0.25-0.76-0.07l-4.49,3.74C812.86,338.27,812.83,338.61,813.02,338.83z"/>
		</g>
		<g>
			<path class="st10" d="M801.92,350.41h-0.16c-0.27,0-0.5-0.23-0.5-0.5v-5.88c0-0.27,0.23-0.5,0.5-0.5h0.16
				c0.28,0,0.5,0.23,0.5,0.5v5.88C802.42,350.19,802.2,350.41,801.92,350.41z"/>
			<path class="st10" d="M798.38,347.05v-0.15c0-0.27,0.23-0.5,0.5-0.5h5.93c0.27,0,0.5,0.23,0.5,0.5v0.15c0,0.27-0.23,0.5-0.5,0.5
				l-5.93,0C798.6,347.55,798.38,347.32,798.38,347.05z"/>
			<path class="st10" d="M799.16,344.79l0.05-0.06c0.19-0.22,0.53-0.25,0.76-0.07l4.49,3.74c0.23,0.19,0.26,0.53,0.07,0.75
				l-0.05,0.06c-0.19,0.22-0.53,0.25-0.76,0.07l-4.49-3.74C799,345.35,798.97,345.02,799.16,344.79z"/>
			<path class="st10" d="M799.16,349.15l0.05,0.06c0.19,0.22,0.53,0.25,0.76,0.07l4.49-3.74c0.23-0.19,0.26-0.53,0.07-0.75
				l-0.05-0.06c-0.19-0.22-0.53-0.25-0.76-0.07l-4.49,3.74C799,348.59,798.97,348.93,799.16,349.15z"/>
		</g>
		<g>
			<path class="st10" d="M814.63,363.03h-0.16c-0.27,0-0.5-0.23-0.5-0.5v-5.88c0-0.28,0.23-0.5,0.5-0.5h0.16
				c0.28,0,0.5,0.22,0.5,0.5v5.88C815.13,362.81,814.9,363.03,814.63,363.03z"/>
			<path class="st10" d="M811.08,359.66v-0.15c0-0.27,0.23-0.5,0.5-0.5h5.93c0.27,0,0.5,0.23,0.5,0.5v0.15c0,0.27-0.23,0.5-0.5,0.5
				h-5.93C811.31,360.16,811.08,359.94,811.08,359.66z"/>
			<path class="st10" d="M811.87,357.41l0.05-0.06c0.19-0.22,0.53-0.25,0.76-0.07l4.49,3.74c0.23,0.19,0.26,0.53,0.07,0.75
				l-0.05,0.06c-0.19,0.22-0.53,0.25-0.76,0.07l-4.49-3.74C811.71,357.97,811.68,357.63,811.87,357.41z"/>
			<path class="st10" d="M811.87,361.77l0.05,0.06c0.19,0.22,0.53,0.25,0.76,0.07l4.49-3.74c0.23-0.19,0.26-0.53,0.07-0.75
				l-0.05-0.06c-0.19-0.22-0.53-0.25-0.76-0.07l-4.49,3.74C811.71,361.21,811.68,361.55,811.87,361.77z"/>
		</g>
		<g>
			<path class="st10" d="M804.23,383.68h-0.16c-0.28,0-0.5-0.22-0.5-0.5v-5.88c0-0.27,0.22-0.5,0.5-0.5h0.16
				c0.27,0,0.5,0.23,0.5,0.5v5.88C804.73,383.45,804.51,383.68,804.23,383.68z"/>
			<path class="st10" d="M800.69,380.31v-0.15c0-0.27,0.23-0.5,0.5-0.5h5.93c0.27,0,0.5,0.23,0.5,0.5v0.15c0,0.27-0.23,0.5-0.5,0.5
				h-5.93C800.91,380.81,800.69,380.58,800.69,380.31z"/>
			<path class="st10" d="M801.47,378.06l0.05-0.06c0.19-0.22,0.53-0.25,0.76-0.07l4.49,3.74c0.23,0.19,0.26,0.53,0.07,0.75
				l-0.05,0.06c-0.19,0.22-0.53,0.25-0.76,0.07l-4.49-3.74C801.31,378.62,801.28,378.28,801.47,378.06z"/>
			<path class="st10" d="M801.47,382.42l0.05,0.06c0.19,0.22,0.53,0.25,0.76,0.07l4.49-3.74c0.23-0.19,0.26-0.53,0.07-0.75
				l-0.05-0.06c-0.19-0.22-0.53-0.25-0.76-0.07l-4.49,3.74C801.31,381.85,801.28,382.19,801.47,382.42z"/>
		</g>
		<g>
			<path class="st10" d="M811.16,403.18h-0.16c-0.28,0-0.5-0.23-0.5-0.5v-5.88c0-0.28,0.22-0.5,0.5-0.5h0.16
				c0.28,0,0.5,0.22,0.5,0.5v5.88C811.66,402.95,811.44,403.18,811.16,403.18z"/>
			<path class="st10" d="M807.62,399.81v-0.15c0-0.27,0.22-0.5,0.5-0.5h5.93c0.28,0,0.5,0.23,0.5,0.5v0.15c0,0.27-0.22,0.5-0.5,0.5
				h-5.93C807.84,400.31,807.62,400.08,807.62,399.81z"/>
			<path class="st10" d="M808.4,397.55l0.05-0.06c0.19-0.22,0.53-0.25,0.76-0.07l4.49,3.74c0.23,0.19,0.26,0.53,0.07,0.75
				l-0.05,0.06c-0.19,0.22-0.53,0.25-0.76,0.07l-4.49-3.74C808.24,398.12,808.21,397.78,808.4,397.55z"/>
			<path class="st10" d="M808.4,401.92l0.05,0.06c0.19,0.22,0.53,0.25,0.76,0.07l4.49-3.74c0.23-0.19,0.26-0.53,0.07-0.75
				l-0.05-0.06c-0.19-0.22-0.53-0.25-0.76-0.07l-4.49,3.74C808.24,401.35,808.21,401.69,808.4,401.92z"/>
		</g>
		<g>
			<path class="st10" d="M803.08,420.38h-0.16c-0.27,0-0.5-0.23-0.5-0.5V414c0-0.27,0.23-0.5,0.5-0.5h0.16c0.27,0,0.5,0.23,0.5,0.5
				v5.88C803.58,420.16,803.35,420.38,803.08,420.38z"/>
			<path class="st10" d="M799.53,417.01v-0.15c0-0.28,0.23-0.5,0.5-0.5h5.93c0.27,0,0.5,0.23,0.5,0.5v0.15c0,0.27-0.23,0.5-0.5,0.5
				h-5.93C799.76,417.51,799.53,417.29,799.53,417.01z"/>
			<path class="st10" d="M800.32,414.76l0.05-0.06c0.19-0.22,0.53-0.25,0.76-0.07l4.49,3.74c0.23,0.19,0.26,0.53,0.07,0.75
				l-0.05,0.06c-0.19,0.22-0.53,0.25-0.76,0.07l-4.49-3.74C800.16,415.32,800.13,414.98,800.32,414.76z"/>
			<path class="st10" d="M800.32,419.12l0.05,0.06c0.19,0.22,0.53,0.25,0.76,0.07l4.49-3.74c0.23-0.19,0.26-0.53,0.07-0.75
				l-0.05-0.06c-0.19-0.22-0.53-0.25-0.76-0.07l-4.49,3.74C800.16,418.56,800.13,418.9,800.32,419.12z"/>
		</g>
		<g>
			<path class="st10" d="M808.85,436.44h-0.16c-0.28,0-0.5-0.23-0.5-0.5v-5.88c0-0.27,0.22-0.5,0.5-0.5h0.16
				c0.28,0,0.5,0.23,0.5,0.5v5.88C809.35,436.22,809.13,436.44,808.85,436.44z"/>
			<path class="st10" d="M805.31,433.07v-0.15c0-0.27,0.22-0.5,0.5-0.5l5.93,0c0.28,0,0.5,0.22,0.5,0.5v0.15
				c0,0.27-0.22,0.5-0.5,0.5h-5.93C805.53,433.57,805.31,433.35,805.31,433.07z"/>
			<path class="st10" d="M806.09,430.82l0.05-0.06c0.19-0.22,0.53-0.25,0.76-0.07l4.49,3.74c0.23,0.19,0.26,0.53,0.07,0.75
				l-0.05,0.06c-0.19,0.22-0.53,0.25-0.76,0.07l-4.49-3.74C805.93,431.38,805.9,431.04,806.09,430.82z"/>
			<path class="st10" d="M806.09,435.18l0.05,0.06c0.19,0.22,0.53,0.25,0.76,0.07l4.49-3.74c0.23-0.19,0.26-0.53,0.07-0.75
				l-0.05-0.06c-0.19-0.22-0.53-0.25-0.76-0.07l-4.49,3.74C805.93,434.62,805.9,434.96,806.09,435.18z"/>
		</g>
		<g>
			<path class="st10" d="M803.08,461.67h-0.16c-0.27,0-0.5-0.22-0.5-0.5v-5.88c0-0.28,0.23-0.5,0.5-0.5h0.16
				c0.27,0,0.5,0.22,0.5,0.5v5.88C803.58,461.45,803.35,461.67,803.08,461.67z"/>
			<path class="st10" d="M799.53,458.31v-0.15c0-0.27,0.23-0.5,0.5-0.5h5.93c0.27,0,0.5,0.23,0.5,0.5v0.15c0,0.27-0.23,0.5-0.5,0.5
				h-5.93C799.76,458.81,799.53,458.58,799.53,458.31z"/>
			<path class="st10" d="M800.32,456.05l0.05-0.06c0.19-0.22,0.53-0.25,0.76-0.07l4.49,3.74c0.23,0.19,0.26,0.53,0.07,0.75
				l-0.05,0.06c-0.19,0.22-0.53,0.25-0.76,0.07l-4.49-3.74C800.16,456.62,800.13,456.28,800.32,456.05z"/>
			<path class="st10" d="M800.32,460.41l0.05,0.06c0.19,0.22,0.53,0.25,0.76,0.07l4.49-3.74c0.23-0.19,0.26-0.53,0.07-0.75
				l-0.05-0.06c-0.19-0.22-0.53-0.25-0.76-0.07l-4.49,3.74C800.16,459.85,800.13,460.19,800.32,460.41z"/>
		</g>
		<g>
			<path class="st10" d="M815.78,480.03h-0.16c-0.27,0-0.5-0.23-0.5-0.5v-5.88c0-0.27,0.23-0.5,0.5-0.5h0.16
				c0.27,0,0.5,0.23,0.5,0.5v5.88C816.28,479.8,816.06,480.03,815.78,480.03z"/>
			<path class="st10" d="M812.24,476.66v-0.15c0-0.27,0.23-0.5,0.5-0.5h5.93c0.27,0,0.5,0.23,0.5,0.5v0.15c0,0.27-0.23,0.5-0.5,0.5
				l-5.93,0C812.46,477.16,812.24,476.93,812.24,476.66z"/>
			<path class="st10" d="M813.02,474.4l0.05-0.06c0.19-0.22,0.53-0.25,0.76-0.07l4.49,3.74c0.23,0.19,0.26,0.53,0.07,0.75
				l-0.05,0.06c-0.19,0.22-0.53,0.25-0.76,0.07l-4.49-3.74C812.86,474.97,812.83,474.63,813.02,474.4z"/>
			<path class="st10" d="M813.02,478.77l0.05,0.06c0.19,0.22,0.53,0.25,0.76,0.07l4.49-3.74c0.23-0.19,0.26-0.53,0.07-0.75
				l-0.05-0.06c-0.19-0.22-0.53-0.25-0.76-0.07l-4.49,3.74C812.86,478.2,812.83,478.54,813.02,478.77z"/>
		</g>
	</g>
	<g>
		<path class="st11" d="M163.12,450.09c3.81,1.87,4.19,8.36,4.66,18.34c0.09,1.87,0.03,1.45,0.03,12.62c0,11.43,0,17.14,0.04,18.35
			c0.26,8.03-0.31,8.16,0.02,10.32c0.86,5.53,2.76,8.51,1.18,10.32c-0.81,0.93-1.89,0.82-5.77,1.16c-2.16,0.19-3.23,0.45-3.97,0.53
			c-1.74,0.19-16,1.66-18.88-1.35c-0.13-0.14-0.25-0.28-0.25-0.28c-0.22-0.28-0.84-1.16-1.16-4.59c-0.4-4.33,0.14-7.77,1.13-12.62
			c1.44-7.03,2.14-10.56,3.44-13.77c2.09-5.19,4.6-9.19,4.6-9.19c3.68-5.86,6.41-7.63,5.75-10.33c-0.29-1.21-0.96-1.39-4.63-4.58
			c-4.77-4.15-7.16-6.27-6.95-8.02c0.22-1.88,2.58-3.03,5.77-4.6c0.8-0.39,3.72-1.77,8.08-2.31
			C159.87,449.65,161.71,449.39,163.12,450.09z"/>
		<path class="st11" d="M401.42,629.7c-0.01,0.07,0,0.05,0.01,3.44c0.01,2.28,0.01,3.68,0.01,4.59c-0.02,6.33-0.49,6.78,0.02,9.18
			c0.37,1.75,0.91,4.26,2.32,4.58c0.53,0.12,1.23-0.05,5.77-4.6c1.15-1.15,2.32-2.28,3.46-3.45c2.56-2.62,3.4-3.31,4.61-3.45
			c1.32-0.16,2.35,0.47,3.47,1.14c2.66,1.59,5.5,2.89,8.09,4.57c3.91,2.54,7.62,3.21,15.02,4.56c2.43,0.44,5.09,0.67,10.4,1.13
			c0,0,4.56,0.39,12.71-0.03c2.78-0.14,3.88-0.28,4.62-1.16c1.19-1.4,0.74-3.76-1.17-9.17c-2.37-6.72-3.56-10.08-4.64-11.46
			c-4.4-5.61-12.21-3.38-33.5-3.37C420.38,626.2,402.23,625.78,401.42,629.7z"/>
		<path class="st12" d="M391.59,337.22c2.02,1.92,2.98,5.06,4.88,11.33c1.99,6.57,2.85,12.22,3.26,16.18c0,0,2.2,14.21,10.49,45.86
			c4.92,18.8,5.97,18.2,11.63,38.98c4.58,16.8,3.91,17.24,10.49,44.71c1.29,5.38,5.53,22,13.97,55.03c2.73,10.7,5.06,21.5,8.15,32.1
			c9.09,31.14,15.26,39.77,10.49,45.86c-3.7,4.73-10.21,3.1-35.8,2.37c-38.52-1.1-38.38,2.18-43.89-1.06
			c-9.1-5.34-10.66-14.97-18.68-98.61c-0.08-0.8-1.99-20.76-4.72-47.02c-2.39-23.04-3.61-34.69-4.7-41.28
			c-1.34-8.07-2.71-14.48-3.52-25.23c-0.66-8.74-0.35-13.67-1.18-13.76c-1.33-0.16-3.63,12.36-8.02,33.28
			c-7.08,33.76-6.05,24.77-10.3,45.9c-5.76,28.63-5.36,33.77-11.47,39.02c-6.42,5.51-15.82,5.99-34.64,6.95
			c-7.22,0.37-12.52,0.25-36.96-1.07c-35.22-1.91-29.8-1.97-38.12-2.22c-27.36-0.8-39.5,4.1-45.05-3.35
			c-1.4-1.88-1.71-5.84-2.34-13.76c-0.94-11.97,0.33-14.45-0.06-28.68c-0.15-5.33-0.32-11.42-1.19-19.5
			c-0.48-4.4-0.96-7.47-1.18-12.61c-0.37-8.72-0.56-13.09,1.12-14.91c2.92-3.16,8.84-1.4,30.04,4.53c0,0,1.27,0.35,28.89,7.97
			c12.6,3.48,19.52,5.23,26.58,6.83c15.49,3.51,23.31,5.22,26.57,3.39c6.08-3.41,4.74-9.85,12.63-37.88
			c3.22-11.45,3.61-10.9,5.74-19.51c1.09-4.41,3.77-15.78,5.71-30.98c0.55-4.28,0.91-7.85,1.13-10.33c0,0,0,0,0,0
			c0,0,0.66-4.96,2.29-9.18c2.06-5.31,30.33-0.98,55.43-5.85C375.11,337.65,385.73,331.67,391.59,337.22z"/>
		<path class="st13" d="M393.31,620.54c-0.39,0-0.77,0-1.16,0c-12.12-93.27-24.25-186.53-36.37-279.8c0.39,0,0.77,0,1.16,0
			C369.07,434,381.19,527.27,393.31,620.54z"/>
		<path class="st13" d="M399.73,367.03c0,0.38,0,0.76,0,1.15c-3.92-0.11-6.52-1.3-8.09-2.28c-7.39-4.61-10.3-16.12-6.99-28.66
			c0.39,0.38,0.77,0.76,1.16,1.14c-0.98,2.75-2.28,7.77-1.13,13.77c0.62,3.2,1.54,8,5.8,11.46
			C393.99,366.46,397.96,366.93,399.73,367.03z"/>
		<path class="st13" d="M301.56,368.37c0.39,0.38,0.77,0.76,1.16,1.14c1.33-0.05,10.16-0.57,16.15-8.06
			c5.02-6.27,4.71-13.26,4.59-14.92c-0.39-0.76-0.77-1.53-1.16-2.29c0.24,1.74,0.97,8.52-3.43,14.92
			C312.9,367.83,302.68,368.34,301.56,368.37z"/>
		<path class="st13" d="M351.29,403.83c0.38-0.38,0.77-0.77,1.15-1.15c3.35-9.8,6.56-20.93,9.17-33.28
			c2.17-10.25,3.62-19.87,4.56-28.68c-0.39,0-0.77,0-1.16,0c-1,8.89-2.46,18.5-4.56,28.68
			C357.84,382.08,354.65,393.59,351.29,403.83z"/>
		<path class="st14" d="M318.59,222.67c0,0.38,0,0.76,0,1.15c0,0.76,0,1.15,0,1.15c0.49,0.24,0.77,0.76,1.16,1.14
			c0.39,0.38,0.77,0.76,1.16,1.14c0,0,0.09,0.09,1.16,1.14c1.59,1.58,7.08,9.59,9.27,12.6c1.95,2.68,1.43,1.58,4.63,5.73
			c5.56,7.21,6.74,7.9,8.1,8.01c2.87,0.24,5.23-3.01,8.07-6.9c0,0,3.02-4.14,8.05-16.07c0,0,0.66-1.32,1.15-2.3
			c0.97-1.93,1.06-2.12,1.12-2.24c0.01-0.02,0.03-0.05,0.03-0.06c0.09-0.18,0.14-0.32,0.16-0.39c0.01-0.02,0.01-0.03,0.01-0.03
			c0.05-0.13,1.31-1.02,4.44-3.03c-2.16-0.91-3.64-1.13-4.62-1.14c-0.58-0.01-0.88-0.01-4.1,0c-0.02,0-0.14,0-0.29,0
			c-0.29,0-0.79,0-1.39,0.01c-0.39,0-1.54,0-1.16,0c0,0-4.44,0.01-4.62,0.01c-0.77,0-1.54,0-2.31,0c-1.16,0-2.31,0-3.47,0.01
			c-0.39,0-0.77,0-1.16,0l-1.16,0c0-1.2,0,2.27,0-1.15c0-0.38,0-0.76,0-1.15c0-1.15,0-2.29-0.01-3.44c0-1.53-0.01-3.06-0.01-4.59
			c0-1.53,0-2.29,0-2.29c0-0.38,0-0.76,0-1.15c0-0.38,0-0.76,0-1.15l0-1.15c0.02-0.56,0.03-1.15,0-1.15c-0.01,0-0.02,0.04-0.02,0.04
			s0.02-0.04,0.02-0.04c0.47-0.85,2.31-1.15,2.31-1.15c1.81-0.3,3.28-1.17,5.1-2.24c0.16-0.09,0.02-0.02,1.82-1.21
			c2.88-1.9,2.89-1.85,3.46-2.3c1.28-1,2.03-1.85,3.46-3.45c1.77-1.99,2.68-3.02,3.46-4.59c0.24-0.49,0.71-1.53,1.15-3.44
			c1.12-4.92,0.53-9.03,0-16.78c-0.01-0.09-0.02-0.23-0.03-0.42c-0.05-0.49-0.27-2.56-1.16-4.59c-0.82-1.85-1.64-3.7-3.47-4.58
			c-1.03-0.49-1.98-0.49-5.78-1.14c-1.74-0.3-1.5-0.45-4.62-1.14c-1.95-0.43-4.37-0.91-5.78-1.14c-2.65-0.42-5.61-0.52-11.55,0.02
			c-8.49,0.78-12.74,1.17-15.01,2.32c-0.52,0.27-7.95,4.17-10.37,11.49c-0.93,2.81-0.57,4.42-2.29,9.18c-0.69,1.9-1.2,2.9-1.15,4.59
			c0.1,3.07,1.94,4.42,1.17,5.73c-0.77,1.3-2.85,0.43-4.62,2.3c-0.29,0.31-1.09,1.15-1.15,2.3c-0.11,2,1.84,3.8,3.47,4.58
			c1.36,0.65,2.69,1.14,3.47,1.14c0.06,0,0.42,0,1.16,0c1.14,0,1.13,0,1.16,0c1.26-0.15,2.31-1.15,2.31-1.15
			c-0.54,0.02,0.77-0.77,1.15-1.15c0.04-0.11,0.33-0.87,1.15-1.15c0.13-0.04,0.63-0.2,1.16,0c0.42,0.16,0.49,0.41,1.16,1.14
			c0.01,0.01,0,0,1.16,1.14c2.31,2.29,2.29,2.27,2.31,2.29c1.36,1.11,2.76,1.53,3.53,1.76c1.51,0.45,2.78,0.5,3.4,0.52
			c0.63,0.02,0.55-0.03,1.16,0c1.15,0.05,2.75,0.14,3.47,1.14c0.02,0.03,0.04,0.06,0.05,0.08c0.07,0.15,0,0.36-0.05,1.07
			c0,0,0,0.76,0,2.29c0,0.76,0,1.15,0,1.15s-0.03,1.09,0,1.15c0.01,0.02,0.03,0.04,0.03,0.04c0.01,0.01,0.01,0.01,0.01,0.02
			c0.08,0.18-0.03,0.58-0.03,4.52c0,1.87,0,2.29,0,2.29c0,0,0,2.29,0,2.29c0,0.38,0,0.76,0,1.15c0,0.76,0,1.15,0,1.15
			c-0.39,0-0.77,0-1.16,0C324.75,222.66,321.67,222.66,318.59,222.67z"/>
		<path class="st4" d="M338.24,229.51"/>
		<path class="st4" d="M392.42,176.64"/>
		<path class="st14" d="M365.95,226.01"/>
		<path class="st14" d="M345.13,213.44"/>
		<path class="st14" d="M312.79,213.5"/>
		<path class="st15" d="M306.99,200.9c-0.27,1.03-0.03,2.15,0,2.29c0.26,1.13,0.84,1.89,1.16,2.29c0.21,0.26,0.57,0.71,1.16,1.14
			c1.17,0.86,2.4,1.01,3.47,1.14c0.82,0.1,1.46,0.18,2.31,0c0.55-0.12,1.58-0.34,2.31-1.15c0.93-1.03,0.65-2.2,1.15-2.3
			c0.59-0.12,0.96,1.55,2.31,2.29c1.37,0.75,3.16,0.6,3.47-0.01c0.18-0.35,0-1.15,0-1.15c0,0-1.59-1.25-3.47-2.29
			c-1.23-0.68-2.31-1.14-2.31-1.14c-1.04-0.45-1.58-0.59-2.31-1.14c-0.36-0.27-0.78-0.59-1.16-1.14c-0.84-1.24-0.66-1.85-1.16-2.29
			C312.62,196.28,307.77,197.94,306.99,200.9z"/>
		<path class="st15" d="M336.88,129.72c0.91-1.24,2.4-2.99,4.61-4.6c1.28-0.93,8.02-5.81,13.85-3.47c1.98,0.8,3.45,2.27,4.63,3.43
			c1.9,1.88,2.98,3.73,3.47,4.58c0.61,1.05,0.99,1.91,1.16,2.29c0.04,0.1,0.71,1.65,1.16,3.44c1.61,6.37,0.03,12.62,0.03,12.62
			c-0.41,1.62-0.89,2.85-1.15,3.44c-0.53,1.25-1.49,3.43-3.45,5.74c-1.01,1.19-1.93,1.98-2.31,2.3c-0.8,0.67-1.99,1.67-3.46,2.3
			c-3.28,1.42-6.61,0.45-8.09,0.02c-2.39-0.7-4.32-2.07-4.62-2.28c-2.06-1.43-2.5-2.4-3.47-2.29c-1.23,0.15-1.64,2.35-3.46,4.59
			c-3.51,4.33-9.57,4.59-10.39,4.61c-1.42,0.04-3.6,0.1-5.78-1.14c-3.09-1.75-3.88-4.82-4.63-4.58c-1.04,0.33,1.43,5.98-1.13,11.47
			c-0.4,0.86-2.02,4.34-4.61,4.6c-1.12,0.11-1.85-0.43-2.31,0c-0.77,0.73,0.91,2.58,1.17,5.73c0.21,2.62-0.68,4.68-1.14,5.74
			c-0.76,1.76-1.56,3.54-3.46,4.59c-2.78,1.55-5.91,0.39-6.93,0.01c-2.54-0.94-3.98-2.65-4.63-3.43c-0.55-0.67-1.88-2.2-2.32-4.58
			c-0.19-1.03-0.36-2.65-0.01-4.59c0.23-1.28,0.48-2.29,1.15-3.44c1.54-2.68,3.44-2.98,3.46-4.59c0-0.38-0.11-0.35-1.16-2.29
			c-0.52-0.95-3.39-6.65-3.48-6.88c-0.51-1.22-0.99-2.66-1.16-4.59c-0.14-1.57-0.23-5.52,2.29-9.18c0.23-0.33,1.4-1.96,3.46-3.45
			c0.68-0.49,2.28-1.62,4.62-2.3c2.3-0.67,2.94-0.46,3.46-1.15c0.86-1.15-0.48-2.61-1.17-5.73c-0.11-0.52-1.16-5.59,1.13-10.33
			c0.65-1.35,1.39-2.28,2.3-3.45c1-1.27,2.51-2.95,4.61-4.6c1.09-0.85,2.07-1.62,3.46-2.3c5.34-2.62,10.86-1.11,11.96-0.79
			c2.01,0.59,3.4,1.41,4.15,1.86c1.6,0.95,4.58,2.77,6.5,6.4C336.42,125.77,336.8,128.01,336.88,129.72z"/>
		<path class="st14" d="M367.03,188.16"/>
		<path class="st14" d="M335.89,213.46"/>
		<path class="st14" d="M390.22,235.14c1.17-0.41,3.33-0.05,17.36,17.17c5.19,6.38,11.01,13.51,18.53,24.05
			c3.83,5.37,8.25,10.35,11.58,16.04c3.51,5.99,4.7,9.42,8.11,10.31c2.74,0.71,5.07-0.68,12.69-5.76
			c9.75-6.49,14.62-9.74,18.45-12.65c7.91-6.01,8.79-7.18,14.99-11.5c6.49-4.52,9.82-6.8,13.84-8.06c4.85-1.51,7.35-0.85,18.48-0.04
			c17.6,1.28,31.64,1.11,32.35,4.52c0.04,0.21,0.08,0.65,0,1.15c-0.18,1.11-0.92,2.33-4.61,4.6c-2.46,1.51-3.44,1.77-5.77,3.45
			c-1.44,1.04-1.96,1.59-2.31,2.3c-0.92,1.88-0.2,3.95,0.01,4.59c1.46,4.5,0.61,14.09-1.09,33.27c-0.16,1.83-0.57,5.77-3.45,8.04
			c-0.38,0.3-2.25,1.77-3.46,1.15c-2.46-1.25-0.27-10.14-1.18-10.32c-0.4-0.08-0.71,1.63-2.31,2.3c-0.14,0.06-1.38,0.56-2.31,0
			c-0.35-0.21-1-0.77-1.16-3.44c-0.24-3.89,0.92-6.32-0.01-6.88c-0.33-0.2-0.85-0.12-1.16,0c-0.62,0.25-0.64,0.79-1.15,1.15
			c-0.64,0.45-1.71,0.39-2.31,0c-1.33-0.86-0.03-3.27-1.16-4.59c-1.48-1.72-5.42-1.06-8.09,0.02c-4.5,1.82-5.96,5.08-10.37,10.34
			c-0.58,0.69-3.46,3.53-9.22,9.19c-12.61,12.41-22.05,19.18-32.29,26.45c-4.15,2.94-7.12,4.89-11.54,5.76
			c-7.62,1.49-14.07-1.31-16.18-2.26c-5.44-2.45-8.67-5.93-12.73-10.3c-2.46-2.65-2.23-2.84-8.11-10.31
			c-5.75-7.3-5.67-6.73-9.26-11.45c-4.52-5.93-7.81-10.9-10.43-14.89c-3.21-4.9-4.82-7.35-5.79-9.16
			c-5.36-10.03-2.18-17.43-1.24-41.29C388.6,241.88,387.49,236.11,390.22,235.14z"/>
		<path class="st14" d="M368.26,224.86"/>
		<path class="st16" d="M295.5,227.3c0.83-1.2,2.21-2.13,10.39-3.46c7.86-1.28,11.78-2.18,13.86-1.17c2.38,1.15,2.4,2.57,6.95,10.31
			c0.7,1.19,4.38,7.42,9.27,13.75c4.14,5.36,6.25,8.04,8.1,8.01c4.52-0.06,8.41-8.78,12.67-18.38c3.81-8.57,3.87-11.31,6.9-12.63
			c2.92-1.27,7.38,0.65,16.18,4.56c10.27,4.55,11.18,5.96,11.56,6.86c1.25,2.92-0.51,4.43-2.28,14.92
			c-0.35,2.08-0.88,5.28-1.16,9.35c-0.25,3.66,0.03,4.59,0.05,12.44c0.02,9.09,0.04,13.63,0.03,14.91
			c-0.07,7.13-0.2,8.68,0.03,12.62c0.19,3.27,0.34,3.32,1.18,11.47c1.17,11.39,0.69,9.61,1.18,12.61
			c1.33,8.13,3.19,11.17,1.18,13.76c-0.98,1.26-2.8,2.33-4.62,2.3c-2.88-0.04-4.05-2.8-5.78-2.28c-1.78,0.54-0.97,3.59-3.45,5.74
			c-1.82,1.58-4.87,2.19-6.93,1.16c-2.17-1.08-2.45-3.58-3.47-3.43c-0.92,0.13-0.68,2.18-2.3,4.59c-0.56,0.83-2.02,3-4.61,3.45
			c-0.19,0.03-2.8,0.45-4.62-1.14c-1.58-1.37-1.14-3-2.32-3.44c-1.11-0.41-2.07,0.84-4.62,2.3c-2.44,1.4-4.76,2.74-6.93,2.31
			c-3.25-0.65-3.88-4.84-5.78-4.58c-1.87,0.26-1.53,4.36-4.61,5.74c-2.04,0.91-4.25,0.14-4.62,0.01c-1.27-0.44-1.52-0.98-4.63-3.43
			c-1.94-1.53-2.92-2.3-3.47-2.29c-2.17,0.06-2.45,3.54-5.77,4.6c-0.5,0.16-2.02,0.65-3.47,0.01c-2.06-0.91-2.07-3.28-3.47-3.43
			c-1.26-0.14-1.59,1.76-3.46,2.3c-1.97,0.57-4.8-0.43-5.78-2.28c-1.35-2.56,1.18-6.08-0.01-6.88c-0.34-0.23-0.78-0.1-1.16,0
			c-3.47,0.95-6.73,1.84-8.08,1.16c-1.89-0.95-1.33-5.63-1.17-6.88c1.48-11.52,2.16-17.28,3.42-21.8c0.7-2.5,3.05-11.13,4.58-20.66
			c1.61-10.08,1.85-18.35,2.25-32.12c0.09-3.26,0.1-5.44-0.02-8.03c-0.28-5.93-0.79-8.84-1.18-12.61
			C294.71,229.92,294.51,228.72,295.5,227.3z"/>
		<path class="st14" d="M367.07,211.1"/>
		<path class="st14" d="M362.46,213.4"/>
		<path class="st11" d="M646.59,778.32"/>
		<path class="st11" d="M452.28,650.24"/>
		<path class="st11" d="M446.51,650.25c0-0.38,0-0.76,0-1.15"/>
		<path class="st14" d="M295.5,227.3c2.2,1.61,1.31,5.03,1.19,17.2c-0.03,3.44,0.01,6.88,0.02,10.32c0.01,6.12,0.02,9.18,0.02,9.18
			c0.1,2.92,0.25,4.39,0.01,6.88c-0.28,2.9-0.43,4.51-1.14,5.74c-1.59,2.76-5.48,2.79-16.16,3.47c0,0-16.94,1.09-21.13,5.63
			c-0.41,0.45-0.66,0.97-0.66,0.97c-0.06,0.11-0.1,0.22-0.14,0.33c-1.06,3.45,5.24,7.11,24.3,22.89
			c14.39,11.92,17.99,15.79,20.83,21.75c4.18,8.77,4.63,17.68,4.66,18.34c0.08,1.81-0.1,0.44-1.12,16.06
			c-0.02,0.29-0.24,3.66-1.14,8.03c-0.93,4.53-1.74,6.02-2.3,6.89c-1.32,2.06-4.17,5.21-5.77,4.6c-2.96-1.14,0.27-14.57-1.19-14.91
			c-0.94-0.22-2.83,5.21-8.06,13.78c-2.85,4.66-4.67,6.96-6.92,6.9c-1.36-0.04-2.93-0.95-3.47-2.29c-0.84-2.09,1.34-3.96,4.6-10.33
			c0.7-1.36,2.78-5.43,2.3-5.74c-0.45-0.29-2.89,2.74-3.46,3.45c-1.55,1.92-3.14,3.89-4.61,6.89c-1.19,2.44-1.57,4.06-3.45,5.74
			c-1.04,0.93-1.72,1.15-2.31,1.15c-1.66,0-3.3-1.74-3.47-3.43c-0.13-1.32,0.72-1.8,2.3-4.59c1.47-2.59,2.65-5.53,2.3-5.74
			c-0.13-0.08-0.45,0.2-2.31,2.3c-3.15,3.56-3.5,4.23-4.61,4.6c-1.59,0.53-3.79,0.13-4.62-1.14c-1.01-1.55,0.26-4.02,1.14-5.74
			c0.84-1.62,2.58-4.28,3.45-6.89c0.09-0.27,0.27-0.83,0-1.15c-0.56-0.66-2.29,0.61-3.47,0.01c-1-0.51-1.3-2.23-1.16-3.44
			c0.43-3.75,5.24-3.58,9.22-9.19c1.54-2.16,1.4-2.81,3.45-5.74c0.8-1.14,1.21-1.6,1.15-2.3c-0.15-1.92-3.64-3.08-4.63-3.43
			c-8.89-3.13-21.08-12.78-26.6-17.15c-4.93-3.91-7.66-7.34-12.73-13.74c-11.67-14.71-19.23-24.46-18.55-36.67
			c0.76-13.73,12.14-22.92,14.96-25.26c4.59-3.81,4.76-2.32,23.08-10.37c5.26-2.31,16.97-6.15,40.4-13.84
			C291.11,226.86,293.76,226.03,295.5,227.3z"/>
		<path class="st13" d="M177.13,524.62c-0.39,0-0.77,0-1.16,0c2.08-18.39,2.97-33.56,3.37-44.74c0.42-11.73,0.3-18.8-0.05-25.23
			c-0.51-9.34-1.48-17.17-2.36-22.94c0.38,0,0.77,0,1.16,0c0.84,5.09,1.81,12.16,2.35,20.64c0.6,9.37,0.46,16.94,0.05,26.38
			C180,490.22,179.06,505.74,177.13,524.62z"/>
		<path class="st13" d="M460.25,591.73"/>
		<path class="st12" d="M460.27,600.9"/>
		<path class="st13" d="M373.62,590.75"/>
		<path class="st13" d="M464.93,621.54c-12.88-0.67-26.37-1.05-40.43-1.07c-15.74-0.01-30.77,0.44-45.04,1.24c0-0.38,0-0.76,0-1.15
			c13.91-0.78,28.57-1.23,43.89-1.23c14.48-0.01,28.36,0.38,41.58,1.06C464.93,620.77,464.93,621.16,464.93,621.54z"/>
		<path class="st13" d="M418.68,596.4"/>
		<path class="st13" d="M179.28,448.91c0,0.76,0,1.53,0,2.29c7.58,1.56,85.91,17.67,99.37,18.15c0.95,0.03,3.33,0.1,5.77-1.16
			c4.67-2.4,6.25-7.93,6.91-10.34c2.2-8.09,11.65-43.8,24.07-92.96c-0.77,0.38-1.54,0.77-2.31,1.15
			c-6.15,22.25-10.07,38.91-12.6,50.49c-2.38,10.88-6.35,21.36-9.18,32.13c-2.62,10.01-3.31,13.51-6.9,16.07
			c-3.97,2.84-8.84,2.63-30.03-1.09c-10.46-1.83-15.68-2.79-18.49-3.4C224.55,457.76,207.1,454.13,179.28,448.91z"/>
	</g>
</g>
</svg>
