<?xml version="1.0" encoding="utf-8"?>
<!-- Generator: Adobe Illustrator 23.0.1, SVG Export Plug-In . SVG Version: 6.00 Build 0)  -->
<svg version="1.1" xmlns="http://www.w3.org/2000/svg" xmlns:xlink="http://www.w3.org/1999/xlink" x="0px" y="0px"
	 viewBox="0 0 1366 768" style="enable-background:new 0 0 1366 768;" xml:space="preserve">
<style type="text/css">
	.st0{fill:#F1C376;}
	.st1{fill:#010101;}
	.st2{fill:#F7D3BB;}
	.st3{fill:#2F6858;}
	.st4{fill:#5BA092;}
	.st5{fill:none;stroke:#B9B3B8;stroke-width:2;stroke-miterlimit:10;}
</style>
<g id="Layer_3">
</g>
<g id="Layer_2">
	<g>
		<path class="st0" d="M1033.08,285.85c44.89,197.36-132.27,431.14-344.56,472.84c-224.76,44.15-457.64-133.13-443.5-211.69
			c9.97-55.41,137.67-32.78,192.13-123.67c77.43-129.23-105.03-301.27-49.47-379.08C461.98-59.81,967.44-2.74,1033.08,285.85z"/>
		<g>
			<path class="st1" d="M656.88,410.1c-1.03-6.88-2.42-16.93-1.15-29.91c1.09-11.2,3.32-15.91,5.75-28.76
				c4.57-24.16,0.14-25.76,3.45-34.51c11.8-31.16,71.68-20.71,86.28-55.22c3.94-9.32,3.46-19.28,9.2-20.71
				c5.6-1.4,8.8,7.41,24.16,19.56c21.09,16.68,38.22,18.4,41.42,18.41c0.04,0,0.09,0,8.05,0c4.85,0,5.67,0,5.75,0
				c8.39-0.01,22.27-2.39,27.61-2.3c16.66,0.27,29.53,25.79,34.51,35.66c9.68,19.2,10.86,36.88,11.5,48.32
				c0.76,13.52-0.4,26.34-2.3,47.17c-2.15,23.57-3.64,26.04-1.15,32.21c6.19,15.33,20.47,12.55,35.66,29.91
				c14.56,16.63,16.7,36.59,17.26,42.57c2.21,23.56-7.02,41.19-11.5,49.47c-4.08,7.54-12.65,22.92-29.91,33.36
				c-12.5,7.56-16.24,4.61-48.32,13.81c-12.25,3.51-26.46,7.58-42.57,14.96c-18.65,8.54-21.33,13.02-42.57,25.31
				c-30.96,17.91-46.44,26.87-60.97,25.31c-27.28-2.93-46.75-30.83-54.07-49.47c-8.7-22.12-5.53-44.52-4.6-50.62
				c1.13-7.42,2.77-12.61,3.45-14.96C682.85,521.71,666.46,474.41,656.88,410.1z"/>
			<path class="st2" d="M834.05,278.95c0.12,0,1.05-0.04,2.3,0c4.36,0.15,10.5,1.23,13.81,3.45c6.68,4.49,9.69,18.95,2.3,27.61
				c-5.3,6.21-15.44,8.83-20.71,5.75c-1.6-0.94-3.51-2.85-5.75-2.3c-2.07,0.51-3.14,2.82-3.45,3.45
				c-3.51,7.04-24.14,25.64-43.72,33.36c-11.67,4.6-21.73,4.86-26.84,4.96c-42.45,0.79-72.62-31.63-74.4-38.32
				c-0.13-0.49-0.65-2.88-2.3-3.45c-1.67-0.58-3.26,1.12-5.75,2.3c0,0-3.37,1.59-9.2,1.15c-7.25-0.55-18.35-9.11-17.26-20.71
				c1.09-11.55,13.39-16.78,20.71-17.26c1.4-0.09,1.42,0.01,2.3,0c1.37-0.02,15.14-50.38,33.36-58.67
				C728.84,206.91,822.24,279.35,834.05,278.95z"/>
			<path class="st1" d="M874.32,277.8c-11.59,1.73-25.64,2.64-41.42,1.15c-5.72-0.54-11.1-1.34-16.11-2.3
				c-14.58-2.8-24.22-9.98-29.91-13.81c-12.25-8.25-20.79-17.7-26.46-25.31c9.94,0.43,20.72,0.5,32.21,0
				c13.32-0.58,25.64-1.84,36.81-3.45c1.46,5.36,5.43,17.03,16.11,27.61C856.66,272.7,868.92,276.48,874.32,277.8z"/>
			<path class="st1" d="M689.09,273.2c-5.53,1.6-13.36,3.49-23.01,4.6c0.83-12.11,3.22-27.24,9.2-43.72
				c2.4-6.62,5.08-12.6,7.81-17.94c6.58,3.38,13.95,6.76,22.11,9.89c12.99,4.98,25.09,8.22,35.66,10.35
				c-2.07,4.11-5.64,10.14-11.5,16.11C716.89,265.17,701.96,269.48,689.09,273.2z"/>
			<path class="st3" d="M861.66,224.88c-7.29,19.86-54.69,18.16-92.04,16.11c-73.59-4.04-92.85-29.13-96.64-34.51
				c-3.98-5.66-5.2-9.89-4.6-13.81c2.41-15.76,33.72-22.49,57.52-27.61c37.87-8.14,60.03-11.99,85.13-1.15
				C839.77,176.31,868.28,206.84,861.66,224.88z"/>
			<path class="st4" d="M776.53,185.76c-2.73,3.77-4.08,5.75-5.75,5.75c-2.76,0-6.09-2.93-5.75-5.75c0.31-2.63,3.67-3.85,5.75-4.6
				c2.92-1.06,7.29-1.56,8.05,0C779.23,181.98,778.34,183.26,776.53,185.76z"/>
			<path class="st3" d="M778.83,403.2c-17.53-1.95-30.61-2.23-34.51-2.3c-3.79-0.06-25.26-0.37-46.02,2.3
				c-2.39,0.31-47.48,6.36-75.93,23.01c-57.76,33.79-63.8,121.08-64.43,132.3c128.08,0.38,256.17,0.77,384.25,1.15
				c-4.79-22.24-15.71-57.11-42.57-90.89C884.7,450,861.97,421.41,826,411.26C809.57,406.61,782.59,403.62,778.83,403.2z"/>
			<path class="st2" d="M768.48,404.35c-12.27-0.38-24.54-0.77-36.81-1.15c1.15-17.64,2.3-35.28,3.45-52.92h32.21
				C767.71,368.3,768.09,386.33,768.48,404.35z"/>
			<path class="st2" d="M773.08,410.1c-3.47,2.76-15.06,11.26-32.21,11.5c-16.91,0.24-28.62-7.7-32.21-10.35
				c-3.83-2.68-7.67-5.37-11.5-8.05c12.4-1.38,26.28-2.3,41.42-2.3c12.48,0,26.38,0.62,41.42,2.3
				C777.68,405.5,775.38,407.8,773.08,410.1z"/>
			<path class="st5" d="M740.87,427.36c5.37-2.68,10.74-5.37,16.11-8.05"/>
			<line class="st5" x1="789.76" y1="485.46" x2="792.06" y2="505.02"/>
			<line class="st5" x1="846.71" y1="430.81" x2="844.41" y2="419.31"/>
			<line class="st5" x1="599.36" y1="449.22" x2="599.36" y2="445.77"/>
			<line class="st5" x1="658.03" y1="445.77" x2="668.39" y2="459.57"/>
			<line class="st5" x1="677.59" y1="496.39" x2="678.74" y2="515.95"/>
			<line class="st5" x1="616.62" y1="544.71" x2="631.57" y2="540.11"/>
			<line class="st5" x1="572.9" y1="550.46" x2="583.25" y2="557.36"/>
			<line class="st5" x1="735.11" y1="535.51" x2="750.07" y2="527.45"/>
			<line class="st5" x1="843.26" y1="530.9" x2="858.21" y2="525.15"/>
			<line class="st5" x1="907.68" y1="538.96" x2="908.83" y2="556.21"/>
		</g>
	</g>
</g>
</svg>
