<?xml version="1.0" encoding="utf-8"?>
<!-- Generator: Adobe Illustrator 23.0.1, SVG Export Plug-In . SVG Version: 6.00 Build 0)  -->
<svg version="1.1" xmlns="http://www.w3.org/2000/svg" xmlns:xlink="http://www.w3.org/1999/xlink" x="0px" y="0px"
	 viewBox="0 0 1366 768" style="enable-background:new 0 0 1366 768;" xml:space="preserve">
<style type="text/css">
	.st0{fill:#324542;}
	.st1{fill:#FFF5EE;}
	.st2{fill:#E3D4C5;}
	.st3{fill:none;stroke:#B5AFB4;stroke-miterlimit:10;}
	.st4{fill:#F3705A;}
	.st5{fill:#EE6E58;}
	.st6{fill:#F7D3BB;}
	.st7{fill:#573218;}
	.st8{fill:#00305F;}
	.st9{fill:none;stroke:#624632;stroke-miterlimit:10;}
</style>
<g id="Layer_1">
</g>
<g id="Layer_3">
	<g id="Layer_4">
	</g>
	<g>
		<path class="st0" d="M1127.03,374.39c-0.39,140.46-182.84,224.65-329.05,293.93C768.54,682.27,404.15,851.61,346.34,716
			C317.7,648.83,457,570.6,470.56,372.58c11.7-170.88-78.93-252.62-45.09-324.05c55.32-116.74,339,13.93,374.14,30.12
			C905.37,127.37,1127.43,229.82,1127.03,374.39z"/>
		<g>
			<path class="st1" d="M541.95,596.51l-204.51-0.56c-3.02-0.01-5.49-2.49-5.48-5.52l0.01-3.54c0.01-3.02,2.49-5.49,5.52-5.48
				l204.51,0.56c3.02,0.01,5.49,2.49,5.48,5.52l-0.01,3.54C547.45,594.05,544.97,596.52,541.95,596.51z"/>
			<path class="st2" d="M516.39,453.65c-0.7,0.05-2.64,0.18-4.21,1.74c-0.61,0.6-1.7,1.52-1.6,2.84c0.08,1.05,0.89,1.78,1.16,2.02
				c3.82,3.49,10.02,13.72,10.54,14.57c1.59,2.62,2.37,5.27,3.94,10.59c0,0,2.98,10.1,3.91,19.84
				c1.31,13.65,11.86,172.35,11.39,183.81c-0.01,0.19-0.08,3.47,2.63,5.3c2.05,1.38,4.7,1.25,6.61,0.02
				c2.05-1.33,2.56-3.5,2.66-3.96c0.31-10.83,0.4-22.78,0.1-35.7c-0.19-8.24-0.43-12.16-3.79-63.47
				c-1.04-15.87-1.58-24.04-2.55-35.7c-0.28-3.41-1.12-13.37-2.57-27.77c-3.87-38.56-6.21-50.42-14.37-62.18
				c-2.13-3.07-4.11-5.35-5.27-6.63C524.78,458.66,521.34,453.31,516.39,453.65z"/>
			<path class="st2" d="M412.32,453.36c0.7,0.05,2.64,0.19,4.2,1.76c0.6,0.61,1.69,1.53,1.58,2.85c-0.08,1.04-0.9,1.77-1.17,2.02
				c-3.84,3.47-10.1,13.66-10.62,14.51c-1.6,2.61-2.4,5.26-4,10.57c0,0-3.04,10.09-4.02,19.82
				c-1.38,13.64-12.81,172.28-12.41,183.74c0.01,0.19,0.07,3.47-2.66,5.28c-2.06,1.37-4.71,1.23-6.61-0.02
				c-2.05-1.34-2.54-3.51-2.63-3.97c-0.25-10.83-0.28-22.78,0.1-35.7c0.24-8.23,0.5-12.16,4.14-63.45
				c1.13-15.86,1.71-24.03,2.74-35.69c0.3-3.41,1.2-13.36,2.72-27.76c4.08-38.54,6.49-50.38,14.71-62.1
				c2.14-3.05,4.14-5.32,5.31-6.6C403.9,458.33,407.37,453,412.32,453.36z"/>
			<path class="st1" d="M362.08,451.9c0.7,0.05,2.64,0.19,4.2,1.76c0.6,0.61,1.69,1.53,1.58,2.85c-0.08,1.04-0.9,1.77-1.17,2.02
				c-3.84,3.47-10.09,13.66-10.62,14.51c-1.6,2.61-2.4,5.26-4,10.57c0,0-3.04,10.09-4.02,19.82
				c-1.38,13.64-12.81,172.28-12.41,183.74c0.01,0.19,0.07,3.47-2.66,5.28c-2.06,1.37-4.71,1.23-6.61-0.02
				c-2.05-1.34-2.54-3.51-2.63-3.97c-0.25-10.83-0.28-22.78,0.1-35.7c0.24-8.23,0.5-12.16,4.14-63.45
				c1.13-15.86,1.71-24.03,2.74-35.69c0.3-3.41,1.2-13.36,2.72-27.76c4.08-38.54,6.49-50.38,14.71-62.1
				c2.14-3.05,4.14-5.32,5.31-6.6C353.66,456.87,357.13,451.54,362.08,451.9z"/>
			<path class="st1" d="M528.41,457.65l-174.69-0.48c-5.22-0.01-9.49-4.3-9.47-9.53l0.02-8.1c0.01-5.22,4.3-9.49,9.53-9.47
				l174.69,0.48c5.22,0.01,9.49,4.3,9.47,9.53l-0.02,8.1C537.93,453.4,533.64,457.66,528.41,457.65z"/>
			<path class="st1" d="M466.15,452.19c-0.7,0.05-2.64,0.18-4.21,1.74c-0.61,0.6-1.7,1.52-1.6,2.84c0.08,1.05,0.89,1.78,1.16,2.02
				c3.82,3.49,10.02,13.72,10.54,14.57c1.59,2.62,2.37,5.27,3.94,10.59c0,0,2.98,10.1,3.91,19.84
				c1.31,13.65,11.86,172.35,11.39,183.81c-0.01,0.19-0.08,3.47,2.63,5.3c2.05,1.38,4.7,1.25,6.61,0.02
				c2.05-1.33,2.56-3.5,2.66-3.96c0.31-10.83,0.4-22.78,0.1-35.7c-0.19-8.24-0.43-12.16-3.79-63.47
				c-1.04-15.87-1.58-24.04-2.55-35.7c-0.28-3.41-1.12-13.37-2.57-27.77c-3.87-38.56-6.21-50.42-14.37-62.18
				c-2.13-3.07-4.11-5.35-5.27-6.63C474.54,457.2,471.1,451.85,466.15,452.19z"/>
		</g>
		<g>
			<path class="st3" d="M630.01,621.21c-4.63-7.09-4.64-14.2-1.27-17.19c1.39-1.23,3.95-2.3,5.29-1.31
				C636.67,604.66,633.38,613.63,630.01,621.21z"/>
			<path class="st3" d="M630.01,622.53c5.08-7.51,10.41-11.78,13.25-10.54c1.27,0.56,2.32,2.34,2.63,3.97
				c0.49,2.58-0.89,4.69-1.34,5.28C642.21,624.38,636.29,625.03,630.01,622.53z"/>
			<path class="st4" d="M660.27,638.31c-28.94,6.63-57.87,13.25-86.81,19.88c-1.35,0.31-2.71-0.47-3.12-1.8
				c-3.94-12.74-7.88-25.47-11.83-38.21c-0.36-1.17,1.09-1.83,1.29-2.12c3.34-4.68,8-6.46,32.56-10.16
				c33.83-5.08,27.59-2.09,29.09-2.56c0.16-0.05,0.76-0.25,1.32,0c1.47,0.67,1.28,3.8,1.31,5.29c0.15,6.91,5.78,12.51,6.57,13.24
				c4.24,3.91,9.22,4.83,11.88,5.32c1.74,0.32,9.77,1.63,14.54,2.68c0.46,0.1,1.63,0.38,2.64,1.33c1.24,1.17,1.87,3.01,1.62,4.68
				C661.35,635.89,661.68,637.98,660.27,638.31z"/>
			<path d="M629.42,596.75c0.32,0.44,2,2.55,1.31,3.97c-0.53,1.07-2.18,1.25-2.65,1.31c-6.16,0.79-66.9,14.31-71.44,15.67
				c-0.34,0.1-1.49,0.47-2.64-0.01c-1.69-0.7-2.34-2.81-2.63-3.97c-21.71-85.27-23.54-92.61-23.54-92.62
				c-0.54-2.17-1.46-5.29-2.63-5.3c-1.33,0-2.33,4-2.66,5.28c-6.87,26.59-37.32,85.45-39.95,104.34c-0.14,1.01-0.53,4.25-2.66,5.28
				c-2.66,1.28-6.5-1.61-7.93-2.67c-7.76-5.74-50.55-35.83-55.42-38.5c-0.42-0.23-1.95-1.02-2.64-2.65c0,0-0.7-1.66,0.01-3.97
				c1.76-5.7,57.09-121.56,59.85-129.41c0.33-0.94,1.29-3.66,0.01-5.29c-1.08-1.38-3.26-1.34-3.96-1.33
				c-60.33,0.8-98.85,1.31-116.31-12.22c-25.06-19.41-22.3-79.71,2.94-105.76c0.51-0.53,0.97-0.97,1.33-1.32
				c0.73,0.01,3.29,0.04,6.51,0.01c0,0,87.03-0.85,95.29,0.27c0.59,0.08,2.19,0.3,2.64,1.33c0.27,0.61,0.02,1.24,0,1.32
				c-3.25,10.13,32.98,27.86,32.98,27.86c16.17,7.91,67.18,32.87,65.96,53.07c-0.17,2.89-1.6,8.73-0.05,17.19
				c1.11,6.03,3.17,10.32,3.93,11.91C585.9,484.2,623.19,588.36,629.42,596.75z"/>
			<path class="st3" d="M468.65,643.24c6.72,3.52,12.96,1.95,14.55-1.28c1.31-2.65-0.17-7.15-2.62-7.94
				C476.16,632.6,468.62,643.22,468.65,643.24c0.01,0.01,0.63-0.62,1.33-1.32"/>
			<path class="st3" d="M468.65,643.24c1.14,3.72,2.78,6.35,3.94,7.94c1.91,2.6,3.74,5.1,6.6,5.31c0.28,0.02,2.39,0.14,3.97-1.31
				c1.97-1.82,1.89-4.98,1.34-6.61C483.19,644.69,476.8,642.32,468.65,643.24z"/>
			<path class="st4" d="M482.43,680.96c-26.4-16.82-52.79-33.64-79.19-50.46c4.65-12.99,9.3-25.99,13.95-38.98
				c0.36-1,1.56-1.41,2.45-0.83l53.68,34.72c-0.66,2.15-1.61,5.35-2.67,9.25c-1.98,7.26-2.96,10.94-2.68,13.21
				c0.45,3.68,2.93,6.87,7.9,13.24c4.76,6.11,7.28,7.8,7.9,11.92C484.26,676.29,483.28,679.13,482.43,680.96z"/>
			<path class="st5" d="M423.23,155.93l7.55,12.91c0.08,0.13-0.02,0.3-0.17,0.3l-15.17-0.04c-0.15,0-0.25-0.17-0.17-0.3l7.62-12.87
				C422.96,155.8,423.15,155.8,423.23,155.93z"/>
			<path class="st6" d="M436.34,132.81c0.11,14.07-9.73,26.58-21.24,31.01c-11.77,4.53-28.24,1.78-35.68-5.39
				c-1.13-1.09-6.64-6.69-9.24-5.31c-0.48,0.25-0.51,0.56-1.33,1.32c-0.29,0.27-2.5,2.29-5.3,2.63c-2.79,0.33-6.41-0.99-7.92-3.99
				c-1.39-2.75-0.34-5.61,0.02-6.61c0.75-2.06,2.05-3.36,2.66-3.96c1.6-1.57,3.23-2.28,3.58-2.45c4.76-2.27,7.26-16.57,9.71-22.64
				c4.21-10.41,16.78-17.61,27.15-18.44C415.77,97.63,436.19,112.68,436.34,132.81z"/>
			<path class="st7" d="M435.09,109.66c2.34,4.75,4.05,8.35,5.26,11.91c4.04,11.89,8.81,35.27-1.44,42.3
				c-0.91,0.63-1.65,0.92-2.65,1.31c-8.81,3.49-18.47-0.76-23.8-0.07c-0.33,0.04-1.28,0.16-1.32,0c-0.11-0.4,5.09-1.99,6.62-2.63
				c13.51-5.63,11.48-49.27,5.43-51.55c-0.8-0.3-1.65-0.4-1.65-0.4c-2.9-0.16-5.13,2.69-14.22,3.01c-7.83,0.27-14.15,0.49-19.82-2.7
				c-1.25-0.7-3.73-2.28-5.28-1.34c-1.33,0.8-1.32,3.04-1.33,3.96c-0.11,5.74-2.45,16.3-7.99,21.13c-1.86,1.62-4.97,2.84-10.59,5.26
				c-0.86,0.37-2.48,1.05-3.97,2.63c-0.5,0.53-2.19,2.36-2.66,5.28c-0.18,1.11-0.7,4.33,1.3,6.61c2.23,2.54,6.62,2.78,9.25,1.35
				c1.61-0.88,1.91-2.02,3.97-2.63c0.43-0.13,2.18-0.62,3.97,0.01c1.9,0.67,2.34,2.07,3.96,3.98c3.56,4.2,8.66,5.95,10.56,6.64
				c2.04,0.74,4.01,1.1,3.96,1.33c-0.04,0.24-2.19,0.03-2.64-0.01c-9.88-0.86-26.06,7.4-38.35,1.22c-0.86-0.43-2.35-1.2-3.96-2.66
				c-7.53-6.82-5.07-20.57-2.55-35.7c0.99-5.92,2.68-11.89,2.68-11.89c6.47-18.47,22.69-31.48,41.08-32.94
				C417.01,80.85,433.68,106.8,435.09,109.66z"/>
			<path class="st5" d="M367.39,152.3c-1.69,5.86-3.38,11.72-5.07,17.58c-0.05,0.19,0.11,0.37,0.3,0.34
				c5.44-0.82,10.89-1.64,16.33-2.47c0.2-0.03,0.3-0.27,0.18-0.43l-11.27-15.11C367.73,152.04,367.45,152.09,367.39,152.3z"/>
			<path class="st7" d="M390.17,95"/>
			<path class="st7" d="M430.94,175.76"/>
			
				<rect x="393.92" y="165.1" transform="matrix(1 2.758472e-03 -2.758472e-03 1 0.488 -1.106)" class="st6" width="14.54" height="22.48"/>
			<path class="st6" d="M415.73,195.55c-3.69,1.56-7.02,1.42-9.97,1.29c-2.71-0.12-6.78-0.33-11.13-2.67
				c-3.82-2.05-6.11-4.8-7.35-6.63l37.02,0.1C423.33,189.41,420.81,193.4,415.73,195.55z"/>
			<path class="st6" d="M604.01,223.84c-0.76-6.37,3.4-11.51,7.98-17.17c1.18-1.46,14.38-17.39,25.16-14.47
				c1.79,0.49,2.03,1.08,3.96,1.33c4.79,0.61,7.7-2.5,14.56-6.57c5.31-3.15,12.86-7.65,15.88-5.24c1.18,0.94,1.49,2.74,1.31,3.97
				c-0.28,1.91-1.74,2.93-6.63,6.59c-5.39,4.04-6.68,5.11-6.63,6.59c0.05,1.48,1.38,1.5,2.63,3.97c1.49,2.95,0.15,4,1.3,7.94
				c1.11,3.78,2.7,3.98,2.63,6.62c-0.07,2.5-1.51,2.96-1.34,5.28c0.19,2.62,2.1,3.22,2.63,5.3c1.12,4.41-5.47,9.66-6.64,10.56
				c-4.97,3.83-6.34,1.91-17.21,6.56c-3.46,1.48-7.09,3.28-13.24,5.25c-4.71,1.51-5.77,1.47-6.61,1.3
				c-4.15-0.8-5.42-5.02-10.54-13.25C606.56,227.7,604.51,228.05,604.01,223.84z"/>
			<path class="st6" d="M316.4,476.89c-4.15,1.11-4,6.54-9.31,21.13c-3.09,8.48-6.53,16.75-7.99,19.81
				c-1.53,3.21-4.17,8.45-5.33,15.85c-0.78,4.94-0.45,8.01,1.3,9.26c1.8,1.29,3.96-0.15,5.28,1.34c1.51,1.7-0.48,4.45,1.3,6.61
				c0.58,0.7,1.59,1.35,2.64,1.33c1.57-0.04,3-1.58,3.97-2.63c0.8-0.87,1.04-1.39,1.33-1.32c0.87,0.23-0.64,5.3,1.3,6.61
				c0.91,0.62,2.22,0.16,2.64,0.01c4.62-1.63,5.24-9.4,6.64-9.24c1.42,0.16,0.79,8.28,3.94,9.27c0.56,0.18,1.05,0.07,1.32,0
				c4.26-1.1,6.16-12.62,7.99-22.45c2.19-11.75,3.28-17.62,4.02-19.82c3.06-9.12,5.21-18.53,8.01-27.74
				c0.16-0.54,0.65-2.13,0.01-2.64c-0.42-0.33-1.14-0.07-1.32,0c-2.75,0.95-10.95-0.66-14.54-1.36
				C320.18,479.05,319.64,476.03,316.4,476.89z"/>
			<path class="st6" d="M308.26,550.91"/>
			<path class="st6" d="M301.66,549.57"/>
			<path class="st8" d="M466.2,333.19"/>
			<path class="st9" d="M639.79,193.52c0.3,4.52-0.92,7.1-2.01,8.59c-3.01,4.12-7.84,3.78-9.28,7.91c-0.39,1.13-0.17,1.56-0.01,5.29
				c0.17,3.97,0.08,7.18-0.03,9.25"/>
			<path class="st9" d="M660.93,198.87c-22.8,12.75-28.02,18.14-27.16,20.42c0.43,1.14,2.63,3.97,6.6,3.98c0.53,0,2.64,0.01,1.32,0"
				/>
			<path class="st9" d="M663.54,210.78c-8.4,4.15-14.78,8.15-19.2,11.19c-3.88,2.66-6.8,4.99-6.63,7.91
				c0.14,2.53,2.52,4.38,3.95,5.3"/>
			<path class="st9" d="M665.49,222.02c-4.96,5.71-9.73,8.1-13.25,9.22c-4.92,1.57-9.04,1.17-10.59,3.94
				c-1.31,2.35,0.01,5.6,1.3,7.94"/>
			<path class="st9" d="M307.09,498.02c-0.06,0.48-0.16,1.87,0.65,3.31c0.65,1.14,1.54,1.74,1.98,1.99"/>
			<path class="st9" d="M307.68,522.48c-2.66,7.04-5.33,14.09-7.99,21.13"/>
			<path class="st9" d="M318.66,524.77c-2.93,7.74-5.87,15.49-8.8,23.23"/>
			<path class="st9" d="M325.4,524.94c-1.87,7-3.74,14-5.61,21.01"/>
			<line class="st3" x1="359.95" y1="266.13" x2="357.79" y2="330.25"/>
			<line class="st3" x1="462.4" y1="272.36" x2="472.83" y2="327.92"/>
			<line class="st3" x1="315.74" y1="476.23" x2="343.49" y2="482.92"/>
			<path d="M387.27,187.54c3.32,1.32,4.07,3.08,9.24,5.31c2.61,1.13,5.98,2.58,10.57,2.67c1.66,0.03,7.82,0.07,13.23-3.93
				c2.31-1.71,2.88-2.97,3.98-3.96c5.3-4.77,19.42-0.02,30.39,6.69c38.42,23.49,52.85,79.8,52.63,91.37
				c-0.02,1.05-0.24,6.18,1.3,6.61c1.32,0.37,3.29-2.86,3.98-3.96c6.04-9.72,25.86-37,46.42-51.44c10.96-7.69,16.43-7.74,19.85-6.56
				c5.25,1.82,6.46,6.81,10.56,6.64c6.19-0.26,7.74-11.8,13.25-11.86c1.89-0.02,3.25,1.32,10.54,11.93
				c9.33,13.56,9.88,15.4,9.21,17.21c-2,5.38-12.1,3.24-14.57,9.21c-1.8,4.34,2.73,7.4,2.6,14.55c-0.09,5.18-2.58,9.46-6.65,14.53
				c-15.53,19.35-45.82,39.94-66.26,54.03c-8.77,6.05-18.47,12.79-31.77,13.13c-3.58,0.09-10.41,0.18-17.18-4.01
				c-7.25-4.49-10.41-11.41-11.86-14.58c-1.57-3.44-2.69-5.87-2.62-9.26c0.05-2.67,0.81-4.85,0.01-5.29
				c-0.69-0.38-1.74,1.38-3.97,2.63c-2.38,1.33-4.7,1.31-6.61,1.3c-33.46-0.17-93.62,1.39-103.13-0.28
				c-0.45-0.08-2.47-0.46-2.64-0.01c-0.15,0.39,1.12,1.19,1.32,1.33c5.12,3.47,7.11,40.33,7.78,49.71
				c0.56,7.78,0.92,8.74,1.29,16.42c0.75,15.66,0.1,24.22-0.07,26.44c-0.39,5.01-1.6,11.27-4.03,23.79
				c-1.88,9.66-3.01,14.06-6.65,15.85c-3.56,1.74-7.67,0.07-9.26,2.62c-0.81,1.3-0.12,2.33-0.01,5.29
				c0.04,1.15,0.29,7.98-2.67,10.57c-2.15,1.88-4.72,0.4-14.54-1.36c-10.87-1.95-14.84-1.41-15.85-4.01
				c-0.5-1.28,0.12-4.38,1.35-10.57c0.16-0.82,0.34-1.67,0.01-2.64c-0.99-2.86-5.3-3.56-6.6-3.98c-11.3-3.73-6.46-52.9-6.46-52.9
				c5.07-50,3.69-60.46,9.54-101.78c0.78-5.5,0.92-6.15,2.7-18.5c3.9-27.09,3.89-28.6,5.38-34.36c1.78-6.85,3.86-16.11,9.33-26.42
				c12.91-24.35,32.99-34.03,41.09-36.91C375.9,187.22,381.62,185.29,387.27,187.54z"/>
			<line class="st3" x1="327.69" y1="459.08" x2="328.99" y2="468.33"/>
			<line class="st3" x1="343.58" y1="451.19" x2="350.19" y2="451.2"/>
			<line class="st3" x1="309.19" y1="456.38" x2="317.13" y2="451.11"/>
			<line class="st3" x1="304.03" y1="408.77" x2="304.01" y2="415.38"/>
			<line class="st3" x1="329.14" y1="412.8" x2="334.41" y2="418.11"/>
			<line class="st3" x1="348.97" y1="411.54" x2="355.6" y2="407.59"/>
			<line class="st3" x1="363.48" y1="426.12" x2="367.45" y2="423.49"/>
			<line class="st3" x1="315.99" y1="385" x2="321.29" y2="382.37"/>
			<line class="st3" x1="338.55" y1="357.3" x2="339.84" y2="366.56"/>
			<line class="st3" x1="335.92" y1="349.36" x2="341.22" y2="345.41"/>
			<line class="st3" x1="318.9" y1="291.14" x2="316.25" y2="292.45"/>
			<line class="st3" x1="329.45" y1="301.75" x2="329.43" y2="308.36"/>
			<line class="st3" x1="351.91" y1="307.1" x2="353.2" y2="316.35"/>
			<line class="st3" x1="358.46" y1="329.59" x2="365.06" y2="330.93"/>
			<line class="st3" x1="344.02" y1="291.21" x2="350.63" y2="289.9"/>
			<line class="st3" x1="328.26" y1="252.82" x2="333.54" y2="256.8"/>
			<line class="st3" x1="350.74" y1="250.24" x2="356.03" y2="248.93"/>
			<line class="st3" x1="370.54" y1="263.52" x2="363.92" y2="266.14"/>
			<line class="st3" x1="371.8" y1="284.67" x2="373.1" y2="291.29"/>
			<line class="st3" x1="374.34" y1="321.7" x2="378.31" y2="321.71"/>
			<line class="st3" x1="400.8" y1="317.81" x2="407.42" y2="312.54"/>
			<line class="st3" x1="394.32" y1="268.87" x2="394.3" y2="275.48"/>
			<line class="st3" x1="368.05" y1="206.66" x2="373.33" y2="210.64"/>
			<line class="st3" x1="377.24" y1="229.16" x2="377.22" y2="237.09"/>
			<line class="st3" x1="403.64" y1="246.42" x2="410.26" y2="243.79"/>
			<line class="st3" x1="416.65" y1="321.82" x2="417.96" y2="328.43"/>
			<line class="st3" x1="432.54" y1="312.61" x2="437.83" y2="312.62"/>
			<line class="st3" x1="463.08" y1="265.09" x2="464.39" y2="270.39"/>
			<line class="st3" x1="447.16" y1="286.2" x2="447.14" y2="292.82"/>
			<line class="st3" x1="465.63" y1="300.8" x2="470.92" y2="300.81"/>
			<line class="st3" x1="418.1" y1="275.55" x2="422.06" y2="279.52"/>
			<line class="st3" x1="435.32" y1="265.02" x2="441.94" y2="262.39"/>
			<line class="st3" x1="430.14" y1="224.02" x2="430.12" y2="231.95"/>
			<line class="st3" x1="455.2" y1="245.24" x2="460.5" y2="242.61"/>
			<line class="st3" x1="485.6" y1="249.29" x2="485.58" y2="255.9"/>
			<line class="st3" x1="490.76" y1="296.9" x2="497.39" y2="291.63"/>
			<line class="st3" x1="482.75" y1="323.32" x2="489.37" y2="320.7"/>
			<line class="st3" x1="507.94" y1="300.92" x2="509.23" y2="310.17"/>
			<line class="st3" x1="517.06" y1="348.54" x2="522.36" y2="345.91"/>
			<line class="st3" x1="531.72" y1="307.59" x2="533.02" y2="314.21"/>
			<line class="st3" x1="525.15" y1="291.71" x2="530.44" y2="290.4"/>
			<line class="st3" x1="543.73" y1="266.64" x2="547.7" y2="264.01"/>
			<line class="st3" x1="550.29" y1="286.49" x2="552.91" y2="294.43"/>
			<line class="st3" x1="554.15" y1="322.2" x2="560.76" y2="322.22"/>
			<line class="st3" x1="574.13" y1="270.69" x2="574.11" y2="277.3"/>
			<line class="st3" x1="586.09" y1="246.92" x2="588.74" y2="244.29"/>
			<line class="st3" x1="597.91" y1="277.37" x2="603.19" y2="280.02"/>
			<line class="st3" x1="609.94" y1="229.8" x2="609.93" y2="232.45"/>
			<line class="st3" x1="456.01" y1="193.02" x2="456" y2="198.31"/>
			<line class="st3" x1="407.74" y1="196.19" x2="411.71" y2="194.88"/>
			<path class="st3" d="M413.91,331.73c-0.01,3.97-0.02,7.93-0.03,11.9"/>
			<line class="st3" x1="413.98" y1="332.39" x2="437.45" y2="332.45"/>
			<path class="st3" d="M439.07,343.03c-0.23-1.97-0.63-4.21-1.3-6.61c-0.4-1.44-0.85-2.76-1.31-3.97"/>
			<path class="st3" d="M368.34,339.53c11.77,1.52,24.35,2.72,37.67,3.41c21.34,1.1,41.07,0.72,58.84-0.5"/>
			<path class="st3" d="M365,353.41c9.67,7.02,21.41,7.06,28.03,1.16c4.59-4.08,5.49-9.91,5.71-12.31"/>
			<path class="st3" d="M454.28,342.45c0.24,0.67,2.92,7.72,9.43,8.43c5.32,0.58,9.38-3.48,10.11-4.23"/>
			<path class="st3" d="M425.19,343.66c-0.31,3.48-0.28,9.27,3.27,13.89c3.73,4.87,9.57,6.13,11.88,6.64
				c27.19,6.03,74.71,16.56,100.38,37.3c5.25,4.24,12.89,11.57,19.77,23.85"/>
			<path class="st3" d="M369,340.2c-2.25,5.24-13.58,32.84-0.15,52.89c7.83,11.67,20.38,15.31,40.93,21.27
				c16.89,4.89,23.6,3.91,66.08,10.76c20.17,3.25,22.52,4.1,25.11,5.36c21.3,10.39,29.33,34.76,34.24,50.34
				c16.92,53.78,29.11,103.33,35.99,132.97"/>
			<path class="st3" d="M475.13,450.89c9.02-0.07,16.22,1.2,21.14,2.38c6.79,1.64,8.99,3.06,10.29,4.09
				c5.85,4.61,7.19,11.97,7.92,15.65c2.07,10.5,5.64,23.86,11.53,42.16"/>
			<line class="st3" x1="490.99" y1="452.25" x2="428.45" y2="597.52"/>
		</g>
	</g>
</g>
</svg>
