<?xml version="1.0" encoding="utf-8"?>
<!-- Generator: Adobe Illustrator 23.0.1, SVG Export Plug-In . SVG Version: 6.00 Build 0)  -->
<svg version="1.1" xmlns="http://www.w3.org/2000/svg" xmlns:xlink="http://www.w3.org/1999/xlink" x="0px" y="0px"
	 viewBox="0 0 1366 768" style="enable-background:new 0 0 1366 768;" xml:space="preserve">
<style type="text/css">
	.st0{fill:#324542;}
	.st1{fill:#583318;}
	.st2{fill:#C48C7E;}
	.st3{fill:#C68E80;}
	.st4{fill:#4D4D4D;}
	.st5{fill:#F1C376;}
	.st6{fill:none;stroke:#784A41;stroke-miterlimit:10;}
	.st7{fill:none;stroke:#C9A864;stroke-miterlimit:10;}
</style>
<g id="Layer_1">
</g>
<g id="Layer_3">
	<g>
		<path class="st0" d="M141.73,342.36C187.57,133.72,420.38,2.63,620.27,2.39c193.87-0.24,319.4,153.57,479.38,338.8
			c93.21,107.92,147.37,170.63,129.51,232.07c-24.9,85.69-191.63,44.46-608.06,107.9c-222.4,33.88-293.03,62.85-370.42,11.12
			C145.11,621.7,115.81,460.33,141.73,342.36z"/>
		<g>
			<path class="st1" d="M339.99,318.28c-0.88-0.08-3.42-0.29-5.31-2.12c-2.88-2.81-2.41-7.65-2.12-10.61
				c0.16-1.7,0.58-5.55,3.18-9.55c1.43-2.2,4.16-6.4,8.49-7.43c1.49-0.35,4.66-0.69,7.43-3.18l0,0c3.92-3.53,3.19-12.69,3.18-12.74
				c0-0.02,0,0.01,0,0c0-1.49,0.88-42.05,32.9-62.62c32.89-21.12,76.18-6.73,93.4,13.8c1.14,1.36,2.09,2.49,3.18,4.25
				c10.89,17.44,3.91,44.24,5.31,62.62c0.12,1.54,0.37,4.09,2.12,6.37c2.26,2.94,4.73,2.48,10.61,5.31c0,0,8.85,4.26,10.61,9.55
				c0.58,1.75,0.06,3.04,0.06,3.04c-0.03,0.07-0.05,0.12-0.06,0.15c-1.31,2.89-8.49,3.18-8.49,3.18
				C394.03,323.06,376.01,321.46,339.99,318.28z"/>
			<rect x="429.14" y="291.74" class="st2" width="20.17" height="15.92"/>
			<path class="st3" d="M479.03,275.82c-9.07,19.56-47.24,29.19-62.62,16.98c-3.87-3.07-9.08-9.76-14.86-8.49
				c-3,0.66-3.85,3.15-8.49,4.25c0,0-3.46,0.89-7.43,0c-9.57-2.16-23.6-21.8-15.92-32.9c4.58-6.62,16.22-8.9,22.29-5.31
				c2.34,1.39,5.82,4.81,9.55,8.49c2.83,2.79,2.59,2.79,3.18,3.18c4.68,3.06,11.87-2.31,28.66-11.68
				c8.21-4.58,24.09-15.25,27.6-21.23c0.23-0.39,1.32-2.32,2.12-2.12c0.79,0.19,0.82,2.33,1.06,4.25c0.48,3.84,1.75,6.54,3.18,9.55
				c1.87,3.94,4.24,6.33,7.43,9.55c2.7,2.73,3.47,2.82,4.55,4.03C484.02,259.64,481.51,270.48,479.03,275.82z"/>
			<path d="M498.13,252.96c-0.97,0.76-2.61,0.76-3.2,0c-0.54-0.7-0.09-1.91,0-2.19c1.15-3.55-2.86-19.07-14.93-29.55
				c-6.16-5.35-12.23-7.48-15.99-8.76c-19.7-6.69-37.27-0.17-40.52,1.09c-19.37,7.54-31.1,23.69-31.99,28.46
				c-0.05,0.24-0.22,1.34-1.07,2.19c-2.44,2.46-9.03,1.54-10.66-1.09c-3.51-5.67,11.38-26.68,31.99-36.12
				c12.36-5.66,23.33-5.57,28.79-5.47c8.22,0.15,28.3,1.96,43.72,16.42c5.78,5.42,8.59,10.45,10.66,14.23c0,0,5.45,9.94,4.27,18.61
				C499.01,252.16,498.42,252.74,498.13,252.96z"/>
			<path class="st4" d="M403.67,270.52c-2.08,7.4-7.87,13.8-14.86,15.92c-4.06,1.23-8.98,1.11-9.3,0c-0.23-0.82,2.13-1.99,3.94-3.18
				c7.27-4.81,12.15-14.51,10.5-23.35c-0.32-1.69-1.79-9.58-9.19-13.8c-3.23-1.84-6.74-2.49-6.56-3.18c0.23-0.88,5.82-1.7,11.16,0
				c6.49,2.06,12.18,7.71,14.31,14.86C403.98,258.82,405.47,264.11,403.67,270.52z"/>
			<ellipse cx="379.26" cy="264.68" rx="15.92" ry="22.82"/>
			<path d="M507.69,268.23c-0.81,7.34-8.25,13.74-10.61,12.81c-0.68-0.27-0.88-1.13-1.06-1.97c-2.4-11.22-1.69-18.74,0-25.62
				c0.25-1.03,0.46-1.76,1.06-1.97C499.64,250.58,508.68,259.28,507.69,268.23z"/>
			<path class="st4" d="M495.64,283.25h-3.49c-1.38,0-2.5-1.13-2.5-2.5v-27.9c0-1.38,1.13-2.5,2.5-2.5h3.49c1.38,0,2.5,1.13,2.5,2.5
				v27.9C498.14,282.13,497.01,283.25,495.64,283.25z"/>
			<path d="M644.61,552.85c-43.22-27.43-137.67-48.1-139.05-54.13c-0.03-0.16-0.21-1.23-1.06-2.12c-2.14-2.26-6.57-1.23-7.43-1.06
				c-10.88,2.11-115.44-5.59-125.25,3.18c-0.27,0.24-1.82,1.7-4.25,3.18c-3.61,2.21-6.76,3-7.43,3.18
				c-2.64,0.72-79.42,23.03-121,64.75c-15.94,16-34,34.1-32.9,57.32c1.87,39.56,58.78,81.25,112.51,88.1
				c14.87,1.9,78.48,7.37,78.55,14.86c0.01,0.75-0.61,3.68,1.06,5.31c1.26,1.23,3.24,1.15,4.25,1.06
				c83.64-7.33,135.86-23.35,135.86-23.35c20.22,0.76,32.6-2.74,40.33-6.37c2.25-1.06,8.86-4.34,18.64-8.35
				c7.64-3.13,13.38-5.05,14.27-5.45c19.02-8.53,76.97-35.6,80.67-72.18C695.88,586.14,649.28,555.81,644.61,552.85z M544.84,631.4
				c-7.41,2.1-12.25,3.98-15.92,5.31c-16.2,5.86-21.06,5.25-46.7,12.74c-19.42,5.67-23.86,8.13-33.97,7.43
				c-4.63-0.32-5.95-0.99-18.04-4.25c-28.1-7.57-29.85-6.33-57.32-13.8c-6.96-1.89-11.69-3.29-19.56-4.91
				c-11.14-2.3-18.7-3.03-18.65-3.58c0.06-0.66,10.7-0.27,15.92,0c7.89,0.4,13.67,1.05,13.8,1.06c12,1.34,51.32,2.36,109.33,0
				c41.61-1.69,62.42-2.53,72.44-3.55c0.29-0.02,14.49-1.45,14.59-0.7C560.83,627.67,554.31,628.71,544.84,631.4z"/>
			<path class="st5" d="M417.47,307.66c-0.53,0.01-2.12-0.01-3.18,1.06c-0.94,0.94-1.01,2.26-1.06,4.25c-0.05,2.05-0.07,4.55,0,7.43
				c-1.47,0.23-3.69,0.58-6.37,1.06c-10.98,1.95-47.35,8.43-70.05,22.29c-12.66,7.73-21.89,22.49-40.33,52.01
				c-16.4,26.25-30.59,49.38-38.21,82.79c-5.2,22.8-9.55,43.18,2.12,56.26c9.56,10.71,26.61,12.85,39.27,10.61
				c41.51-7.32,66.53-66.94,70.05-64.75c1.2,0.75-3.28,6.63-1.06,11.68c2.8,6.36,14.28,6.97,42.46,6.37
				c25.18-0.54,66.92-2.12,75.36-2.12c1.04,0,4.31,0.02,9.55,0c7.14-0.03,7.09-0.1,7.43,0c7.23,2.03,2.4,23.48,9.55,44.58
				c1.72,5.07,8.11,23.07,25.47,32.9c3.69,2.09,17.63,9.99,32.9,5.31c17.43-5.35,24.66-23.42,27.6-30.78
				c4.03-10.09,6.06-21.74,1.06-58.38c-5.56-40.74-9.02-61.01-19.11-84.91c-14.36-34.02-21.54-51.03-39.27-60.5
				c-14.07-7.51-56.83-22.46-68.99-22.29c-0.8,0.01-5.2,0.14-6.37-2.12c-1.07-2.08,0.79-5.8,0-8.49c-0.35-1.21-1.06-2.12-1.06-2.12
				c0,0-0.45-0.58-1.06-1.06C461.07,306.29,420.59,307.63,417.47,307.66z"/>
			<path d="M475.85,420.18c-13.44-2.48-26.89-4.95-40.33-7.43c-0.54-0.23-3.01-1.37-4.25-4.25c-1.33-3.11-0.2-5.89,0-6.37
				c12.88-30.47,25.75-60.93,38.63-91.4c1.77-4.01,6.49-5.83,10.5-4.07l36.31,16.03c4.01,1.77,5.83,6.49,4.07,10.5
				c-11.43,26.87-22.87,53.74-34.3,80.61c-0.2,0.66-1.19,3.55-4.25,5.31C479.35,420.76,476.57,420.31,475.85,420.18z"/>
			<path class="st3" d="M501.32,422.3c0.62,0.53,2.08,1.79,4.25,2.12c2.54,0.39,4.63-0.72,5.31-1.06
				c7.94-3.97,37.54-10.03,41.4-10.61c0.37-0.06,1.47-0.21,2.12-1.06c1-1.3,0.3-3.38,0-4.25c-5.07-14.59-29.48-60.94-33.97-76.42
				c-0.37-1.29-1.43-5.2-3.18-5.31c-2.1-0.13-4.44,5.22-5.31,9.55c-2.3,11.45,4.87,19.94,3.18,21.23
				c-3.37,2.57-30.38-32.56-40.33-27.6c-0.23,0.12-1.51,0.75-2.12,2.12c-3.11,6.93,15.65,21.36,14.86,22.29
				c-0.77,0.9-17.03-14.56-23.35-10.61c-1.22,0.76-1.81,2.07-2.12,3.18c-0.42,2.47,1.77,3.92,1.06,5.31
				c-0.71,1.4-3.2,0.43-5.31,2.12c0,0,0,0,0,0c0,0.97-1.83,2.35-2.12,4.25c-0.38,2.42,2.79,4.18,2.12,5.31
				c-0.45,0.77-1.99,0.04-3.18,1.06c-0.19,0.16-1.03,0.93-1.06,3.18c-0.07,4.34,2.93,8.17,3.18,8.49
				c5.88,7.34,12.55,12.17,18.04,18.04c5.87,6.28,3.56,6.45,11.68,15.92C490.42,414.18,488.59,411.36,501.32,422.3z"/>
			<path class="st2" d="M400.49,428.67c-2.55,4.2-4,5.09-5.31,5.31c-2.77,0.46-5.19-2.07-7.43-4.25
				c-8.93-8.7-22.5-19.25-26.54-22.29c-2.36-1.77-3.5-2.52-4.25-4.25c-1.93-4.45,1.38-9.78,8.49-20.17
				c7.78-11.37,11.67-17.05,12.74-18.04c6.23-5.79,9.22-4.93,38.21-13.8c15.82-4.84,26.86-8.75,30.78-4.25
				c0.31,0.35,0.93,1.07,1.06,2.12c0.59,4.64-8.72,12-18.04,14.86c-1.96,0.6-4.79,1.27-5.31,3.18c-0.45,1.64,0.96,3.65,2.12,5.31
				c1.68,2.4,2.6,2.41,3.18,4.25c0.63,1.99,0.13,3.82,0,4.25c-0.2,0.67-0.42,1.42-1.06,2.12c-0.38,0.42-0.65,0.53-1.06,1.06
				c0,0-0.57,0.73-0.85,1.6c-0.46,1.46,1.07,2.96,1.91,4.77c1.44,3.11,1.04,7.57-1.06,9.55c-1.26,1.19-2.98,1.03-3.18,2.12
				c-0.13,0.71,0.49,1.22,1.06,2.12c0.95,1.51,0.99,2.98,1.06,5.31c0.14,4.41-2.35,11.9-8.49,15.92c-2.58,1.69-4.69,2.04-5.31,2.12
				c-1.15,0.16-4.58,0.63-6.37-1.06c-3.2-3.03,0.32-11.59,0-11.68C406.57,414.79,404.73,421.69,400.49,428.67z"/>
			<path class="st3" d="M400.49,736.48c-9.96,0.02-21.79,0.8-34.9,3.18c-18.24,3.32-33.31,8.73-44.71,13.8
				c3.27-23,6.54-45.99,9.81-68.99c15.99-3.54,31.99-7.08,47.98-10.61C385.95,694.73,393.22,715.6,400.49,736.48z"/>
			<path class="st5" d="M323,752.86c-1.19,0.44-3.06,1.15-5.31,2.07c-17.08,6.99-20.43,11.58-31.84,14.49
				c-4.71,1.2-13.38,3.3-18.04-1.04c0,0-1.36-1.27-2.12-3.11c-3.2-7.75,8.2-17.77,21.23-38.31c7.03-11.07,14.84-21.7,21.23-33.13
				c1.36-2.44,2.41-3.42,3.18-4.14c2.82-2.62,5.69-3,16.98-5.23c2.45-0.48,4.39-0.88,5.31-1.06
				C330.08,706.56,326.54,729.71,323,752.86z"/>
			<path class="st5" d="M558.64,742.85c0.66,3.65-1.18,7.17-4.25,8.49c-2.39,1.03-5.24,0.6-7.43-1.06c-1.97-1.33-5-3.47-8.49-6.37
				c-8.68-7.22-10.83-11.38-16.98-15.92c-3.25-2.4-8.35-5.45-15.92-7.43c16.63-3.89,33.26-7.78,49.89-11.68
				c0.84,5.33,1.56,11,2.12,16.98C558.13,731.81,558.47,737.48,558.64,742.85z"/>
			<path class="st6" d="M397.34,375.83c17.24-6.38,30.08-6.47,32.47-0.29c0.55,1.43,1.13,4.7-2.64,11.49"/>
			<path class="st6" d="M396.42,392.23c12.28-8.07,24.04-10.69,29.74-5.49c0.84,0.76,4.83,4.41,3.98,9.13
				c-0.69,3.86-4.18,6.05-4.93,6.5"/>
			<path class="st6" d="M404.73,404.25c3.03-1.11,7.59-2.42,13.27-2.65c3.93-0.16,5.92-0.22,7.43,1.06
				c3.75,3.17,2.33,12.36-2.12,18.04c-4.25,5.42-12.38,9.05-15.92,6.37c-1.93-1.46-2.08-4.49-2.12-5.31
				c-0.21-4.28,2.76-7.04,3.18-7.43"/>
			<path class="st6" d="M487.52,386.21c-4.58-4.57-10.03-9.47-16.45-14.33c-4.6-3.48-9.07-6.47-13.27-9.02"/>
			<path class="st6" d="M493.56,371.84c-3.31-3.77-7.66-7.98-13.28-11.87c-6.15-4.27-12.14-7-17.16-8.79"/>
			<line class="st6" x1="500.79" y1="363.39" x2="486.99" y2="352.78"/>
			<line class="st7" x1="424.9" y1="308.73" x2="422.78" y2="320.4"/>
			<line class="st7" x1="436.04" y1="308.2" x2="436.04" y2="319.87"/>
			<line class="st7" x1="446.66" y1="308.73" x2="447.72" y2="320.93"/>
			<line class="st7" x1="458.33" y1="308.73" x2="460.46" y2="320.93"/>
			<path class="st7" d="M307.08,453.08c7.67-9.54,16.96-19.86,28.13-30.25c7.09-6.6,14.05-12.41,20.7-17.51"/>
			<path class="st7" d="M395.44,435.6c-2.29,5.15-4.82,10.38-7.62,15.67c-8.75,16.55-18.61,30.76-28.58,42.89"/>
			<path class="st7" d="M506.26,425.53c-0.52,6.01-0.98,12.1-1.38,18.28c-1.18,18.19-1.74,35.79-1.81,52.72"/>
			<path class="st7" d="M555.45,411.68c2.48,7.45,4.82,15.41,6.9,23.88c5.06,20.57,7.51,39.59,8.49,56.26"/>
		</g>
	</g>
</g>
</svg>
